%TF.GenerationSoftware,KiCad,Pcbnew,10.0.5*%
%TF.CreationDate,2026-10-08T10:52:24-05:00*%
%TF.ProjectId,Rainworks_Electrical,5261696e-776f-4726-9b73-5f456c656374,rev?*%
%TF.SameCoordinates,Original*%
%TF.FileFunction,Legend,Bot*%
%TF.FilePolarity,Positive*%
%FSLAX46Y46*%
G04 Gerber Fmt 4.6, Leading zero omitted, Abs format (unit mm)*
G04 Created by KiCad (PCBNEW 10.0.5) date 2026-10-08 10:52:24*
%MOMM*%
%LPD*%
G01*
G04 APERTURE LIST*
%ADD10C,0.150000*%
%ADD11C,0.508000*%
%ADD12C,0.120000*%
G04 APERTURE END LIST*
D10*
X193634580Y-99133333D02*
X193682200Y-99085714D01*
X193682200Y-99085714D02*
X193729819Y-98942857D01*
X193729819Y-98942857D02*
X193729819Y-98847619D01*
X193729819Y-98847619D02*
X193682200Y-98704762D01*
X193682200Y-98704762D02*
X193586961Y-98609524D01*
X193586961Y-98609524D02*
X193491723Y-98561905D01*
X193491723Y-98561905D02*
X193301247Y-98514286D01*
X193301247Y-98514286D02*
X193158390Y-98514286D01*
X193158390Y-98514286D02*
X192967914Y-98561905D01*
X192967914Y-98561905D02*
X192872676Y-98609524D01*
X192872676Y-98609524D02*
X192777438Y-98704762D01*
X192777438Y-98704762D02*
X192729819Y-98847619D01*
X192729819Y-98847619D02*
X192729819Y-98942857D01*
X192729819Y-98942857D02*
X192777438Y-99085714D01*
X192777438Y-99085714D02*
X192825057Y-99133333D01*
X192825057Y-99514286D02*
X192777438Y-99561905D01*
X192777438Y-99561905D02*
X192729819Y-99657143D01*
X192729819Y-99657143D02*
X192729819Y-99895238D01*
X192729819Y-99895238D02*
X192777438Y-99990476D01*
X192777438Y-99990476D02*
X192825057Y-100038095D01*
X192825057Y-100038095D02*
X192920295Y-100085714D01*
X192920295Y-100085714D02*
X193015533Y-100085714D01*
X193015533Y-100085714D02*
X193158390Y-100038095D01*
X193158390Y-100038095D02*
X193729819Y-99466667D01*
X193729819Y-99466667D02*
X193729819Y-100085714D01*
X192066666Y-91559580D02*
X192114285Y-91607200D01*
X192114285Y-91607200D02*
X192257142Y-91654819D01*
X192257142Y-91654819D02*
X192352380Y-91654819D01*
X192352380Y-91654819D02*
X192495237Y-91607200D01*
X192495237Y-91607200D02*
X192590475Y-91511961D01*
X192590475Y-91511961D02*
X192638094Y-91416723D01*
X192638094Y-91416723D02*
X192685713Y-91226247D01*
X192685713Y-91226247D02*
X192685713Y-91083390D01*
X192685713Y-91083390D02*
X192638094Y-90892914D01*
X192638094Y-90892914D02*
X192590475Y-90797676D01*
X192590475Y-90797676D02*
X192495237Y-90702438D01*
X192495237Y-90702438D02*
X192352380Y-90654819D01*
X192352380Y-90654819D02*
X192257142Y-90654819D01*
X192257142Y-90654819D02*
X192114285Y-90702438D01*
X192114285Y-90702438D02*
X192066666Y-90750057D01*
X191733332Y-90654819D02*
X191114285Y-90654819D01*
X191114285Y-90654819D02*
X191447618Y-91035771D01*
X191447618Y-91035771D02*
X191304761Y-91035771D01*
X191304761Y-91035771D02*
X191209523Y-91083390D01*
X191209523Y-91083390D02*
X191161904Y-91131009D01*
X191161904Y-91131009D02*
X191114285Y-91226247D01*
X191114285Y-91226247D02*
X191114285Y-91464342D01*
X191114285Y-91464342D02*
X191161904Y-91559580D01*
X191161904Y-91559580D02*
X191209523Y-91607200D01*
X191209523Y-91607200D02*
X191304761Y-91654819D01*
X191304761Y-91654819D02*
X191590475Y-91654819D01*
X191590475Y-91654819D02*
X191685713Y-91607200D01*
X191685713Y-91607200D02*
X191733332Y-91559580D01*
%TO.C,J1*%
D11*
X196967700Y-97390100D02*
G75*
G02*
X197729700Y-97390100I381000J0D01*
G01*
X197729700Y-97390100D02*
G75*
G02*
X196967700Y-97390100I-381000J0D01*
G01*
%TO.C,C2*%
D12*
X190609420Y-98990000D02*
X190890580Y-98990000D01*
X190609420Y-100010000D02*
X190890580Y-100010000D01*
%TO.C,C3*%
X191165000Y-94011252D02*
X191165000Y-93488748D01*
X192635000Y-94011252D02*
X192635000Y-93488748D01*
%TD*%
M02*
