%TF.GenerationSoftware,KiCad,Pcbnew,10.0.5*%
%TF.CreationDate,2026-10-08T10:52:24-05:00*%
%TF.ProjectId,Rainworks_Electrical,5261696e-776f-4726-9b73-5f456c656374,rev?*%
%TF.SameCoordinates,Original*%
%TF.FileFunction,Copper,L2,Bot*%
%TF.FilePolarity,Positive*%
%FSLAX46Y46*%
G04 Gerber Fmt 4.6, Leading zero omitted, Abs format (unit mm)*
G04 Created by KiCad (PCBNEW 10.0.5) date 2026-10-08 10:52:24*
%MOMM*%
%LPD*%
G01*
G04 APERTURE LIST*
G04 Aperture macros list*
%AMRoundRect*
0 Rectangle with rounded corners*
0 $1 Rounding radius*
0 $2 $3 $4 $5 $6 $7 $8 $9 X,Y pos of 4 corners*
0 Add a 4 corners polygon primitive as box body*
4,1,4,$2,$3,$4,$5,$6,$7,$8,$9,$2,$3,0*
0 Add four circle primitives for the rounded corners*
1,1,$1+$1,$2,$3*
1,1,$1+$1,$4,$5*
1,1,$1+$1,$6,$7*
1,1,$1+$1,$8,$9*
0 Add four rect primitives between the rounded corners*
20,1,$1+$1,$2,$3,$4,$5,0*
20,1,$1+$1,$4,$5,$6,$7,0*
20,1,$1+$1,$6,$7,$8,$9,0*
20,1,$1+$1,$8,$9,$2,$3,0*%
G04 Aperture macros list end*
%TA.AperFunction,ComponentPad*%
%ADD10R,1.700000X1.700000*%
%TD*%
%TA.AperFunction,ComponentPad*%
%ADD11O,1.879600X1.879600*%
%TD*%
%TA.AperFunction,ComponentPad*%
%ADD12R,1.879600X1.879600*%
%TD*%
%TA.AperFunction,ComponentPad*%
%ADD13R,1.800000X1.800000*%
%TD*%
%TA.AperFunction,ComponentPad*%
%ADD14O,1.800000X1.800000*%
%TD*%
%TA.AperFunction,SMDPad,CuDef*%
%ADD15RoundRect,0.225000X-0.225000X-0.250000X0.225000X-0.250000X0.225000X0.250000X-0.225000X0.250000X0*%
%TD*%
%TA.AperFunction,SMDPad,CuDef*%
%ADD16RoundRect,0.250000X0.475000X-0.250000X0.475000X0.250000X-0.475000X0.250000X-0.475000X-0.250000X0*%
%TD*%
%TA.AperFunction,ViaPad*%
%ADD17C,0.600000*%
%TD*%
%TA.AperFunction,Conductor*%
%ADD18C,0.200000*%
%TD*%
G04 APERTURE END LIST*
D10*
%TO.P,TP10,1,1_1*%
%TO.N,GND*%
X203100000Y-111600000D03*
%TD*%
%TO.P,TP8,1,1_1*%
%TO.N,/SD_SCLK_SPI*%
X203200000Y-107000000D03*
%TD*%
%TO.P,TP2,1,1_1*%
%TO.N,/CH4_ADC*%
X190400000Y-117900000D03*
%TD*%
%TO.P,TP1,1,1_1*%
%TO.N,/CH3_ADC*%
X190400000Y-113800000D03*
%TD*%
%TO.P,TP9,1,1_1*%
%TO.N,/SD_CS_SPI*%
X203200000Y-99200000D03*
%TD*%
%TO.P,TP7,1,1_1*%
%TO.N,/SD_MISO_SPI*%
X203000000Y-95100000D03*
%TD*%
%TO.P,TP6,1,1_1*%
%TO.N,/SD_MOSI_SPI*%
X203400000Y-103000000D03*
%TD*%
%TO.P,TP5,1,1_1*%
%TO.N,/3V3_VDD*%
X203000000Y-90900000D03*
%TD*%
%TO.P,TP4,1,1_1*%
%TO.N,GND*%
X195900000Y-117800000D03*
%TD*%
%TO.P,TP3,1,1_1*%
%TO.N,GND*%
X195900000Y-113900000D03*
%TD*%
D11*
%TO.P,P1,1,GND_1*%
%TO.N,GND*%
X116797000Y-90597000D03*
%TO.P,P1,2,VIN_2*%
%TO.N,/VIN_5V0_MCU*%
X119337000Y-90597000D03*
%TO.P,P1,3,5_3*%
%TO.N,unconnected-(P1-5-Pad3)*%
X121877000Y-90597000D03*
%TO.P,P1,4,0_4*%
%TO.N,unconnected-(P1-0-Pad4)*%
X124417000Y-90597000D03*
%TO.P,P1,5,4_5*%
%TO.N,/SD_CS_SPI*%
X126957000Y-90597000D03*
%TO.P,P1,6,13_6*%
%TO.N,/SD_MOSI_SPI*%
X129497000Y-90597000D03*
%TO.P,P1,7,12_7*%
%TO.N,/SD_MISO_SPI*%
X132037000Y-90597000D03*
%TO.P,P1,8,XPD_8*%
%TO.N,unconnected-(P1-XPD-Pad8)*%
X134577000Y-90597000D03*
%TO.P,P1,9,ADC_9*%
%TO.N,unconnected-(P1-ADC-Pad9)*%
X137117000Y-90597000D03*
%TO.P,P1,10,15_10*%
%TO.N,Net-(P1-15)*%
X139657000Y-90597000D03*
D12*
%TO.P,P1,11,GND_11*%
%TO.N,GND*%
X116797000Y-113457000D03*
D11*
%TO.P,P1,12,3V3_12*%
%TO.N,/3V3_VDD*%
X119337000Y-113457000D03*
%TO.P,P1,13,2_13*%
%TO.N,unconnected-(P1-2-Pad13)*%
X121877000Y-113457000D03*
%TO.P,P1,14,SCL_14*%
%TO.N,/SD_SCLK_SPI*%
X124417000Y-113457000D03*
%TO.P,P1,15,RST_15*%
%TO.N,unconnected-(P1-RST-Pad15)*%
X126957000Y-113457000D03*
%TO.P,P1,16,TXO_16*%
%TO.N,unconnected-(P1-TXO-Pad16)*%
X129497000Y-113457000D03*
%TO.P,P1,17,RXI_17*%
%TO.N,unconnected-(P1-RXI-Pad17)*%
X132037000Y-113457000D03*
%TO.P,P1,18,5V_18*%
%TO.N,unconnected-(P1-5V-Pad18)*%
X134577000Y-113457000D03*
%TO.P,P1,19,NC_19*%
%TO.N,unconnected-(P1-NC-Pad19)*%
X137117000Y-113457000D03*
%TO.P,P1,20,GND_20*%
%TO.N,GND*%
X139657000Y-113457000D03*
%TD*%
D13*
%TO.P,U11,1,OUT_1*%
%TO.N,/CH0_ADC*%
X158460000Y-113838000D03*
D14*
%TO.P,U11,2,VDD_2*%
%TO.N,/3V3_VDD*%
X161000000Y-113838000D03*
%TO.P,U11,3,GND_3*%
%TO.N,GND*%
X163540000Y-113838000D03*
%TD*%
D13*
%TO.P,U7,1,OUT_1*%
%TO.N,/S4_FR_VOUT*%
X170960000Y-90997300D03*
D14*
%TO.P,U7,2,VDD_2*%
%TO.N,/VIN_5V0_MCU*%
X173500000Y-90997300D03*
%TO.P,U7,3,GND_3*%
%TO.N,GND*%
X176040000Y-90997300D03*
%TD*%
D13*
%TO.P,U8,1,OUT_1*%
%TO.N,/S3_T_VOUT*%
X179415000Y-113711000D03*
D14*
%TO.P,U8,2,VDD_2*%
%TO.N,/VIN_5V0_MCU*%
X181955000Y-113711000D03*
%TO.P,U8,3,GND_3*%
%TO.N,GND*%
X184495000Y-113711000D03*
%TD*%
D13*
%TO.P,U10,1,OUT_1*%
%TO.N,/CH1_ADC*%
X161460000Y-90978000D03*
D14*
%TO.P,U10,2,VDD_2*%
%TO.N,/3V3_VDD*%
X164000000Y-90978000D03*
%TO.P,U10,3,GND_3*%
%TO.N,GND*%
X166540000Y-90978000D03*
%TD*%
D13*
%TO.P,U9,1,OUT_1*%
%TO.N,/CH2_ADC*%
X169001000Y-113711000D03*
D14*
%TO.P,U9,2,VDD_2*%
%TO.N,/3V3_VDD*%
X171541000Y-113711000D03*
%TO.P,U9,3,GND_3*%
%TO.N,GND*%
X174081000Y-113711000D03*
%TD*%
D15*
%TO.P,C2,1*%
%TO.N,/3V3_VDD*%
X189975000Y-99500000D03*
%TO.P,C2,2*%
%TO.N,GND*%
X191525000Y-99500000D03*
%TD*%
D16*
%TO.P,C3,1*%
%TO.N,/3V3_VDD*%
X191900000Y-94700000D03*
%TO.P,C3,2*%
%TO.N,GND*%
X191900000Y-92800000D03*
%TD*%
D17*
%TO.N,GND*%
X174900000Y-100300000D03*
%TO.N,/CH1_ADC*%
X162983000Y-102799000D03*
%TO.N,/CH4_ADC*%
X171798000Y-102801000D03*
X171796000Y-85479300D03*
%TO.N,/CH3_ADC*%
X186545000Y-111817000D03*
%TO.N,/CH0_ADC*%
X160046000Y-106053000D03*
%TO.N,/SD_SCLK_SPI*%
X200625000Y-94200200D03*
%TO.N,/3V3_VDD*%
X162539000Y-100182000D03*
X190357000Y-94434100D03*
%TO.N,/SD_MISO_SPI*%
X165921000Y-97245700D03*
X170900000Y-97200000D03*
X148295000Y-97558400D03*
%TO.N,/SD_MOSI_SPI*%
X189423000Y-94309900D03*
X187815000Y-100715000D03*
%TO.N,/SD_CS_SPI*%
X192951000Y-99127000D03*
%TO.N,/VIN_5V0_MCU*%
X164995000Y-92185600D03*
%TO.N,GND*%
X193400000Y-95600000D03*
%TD*%
%TO.N,/CH1_ADC*%
D18*
X161460000Y-101276000D02*
X161460000Y-90978000D01*
X162983000Y-102799000D02*
X161460000Y-101276000D01*
%TO.N,/CH4_ADC*%
X172176000Y-102422000D02*
X171798000Y-102801000D01*
X172176000Y-85858700D02*
X172176000Y-102422000D01*
X171796000Y-85479300D02*
X172176000Y-85858700D01*
X186972000Y-117900000D02*
X190400000Y-117900000D01*
X183157000Y-114084000D02*
X186972000Y-117900000D01*
X183157000Y-113213000D02*
X183157000Y-114084000D01*
X172744000Y-102801000D02*
X183157000Y-113213000D01*
X171798000Y-102801000D02*
X172744000Y-102801000D01*
%TO.N,/CH3_ADC*%
X187265000Y-111817000D02*
X189248000Y-113800000D01*
X186545000Y-111817000D02*
X187265000Y-111817000D01*
X190400000Y-113800000D02*
X189248000Y-113800000D01*
%TO.N,/CH0_ADC*%
X158460000Y-107639000D02*
X158460000Y-113838000D01*
X160046000Y-106053000D02*
X158460000Y-107639000D01*
%TO.N,/SD_SCLK_SPI*%
X204552000Y-104497000D02*
X203200000Y-105848000D01*
X204552000Y-98398200D02*
X204552000Y-104497000D01*
X203292000Y-97138100D02*
X204552000Y-98398200D01*
X202872000Y-97138100D02*
X203292000Y-97138100D01*
X200625000Y-94891500D02*
X202872000Y-97138100D01*
X200625000Y-94200200D02*
X200625000Y-94891500D01*
X203200000Y-107000000D02*
X203200000Y-105848000D01*
%TO.N,/3V3_VDD*%
X189975000Y-95082000D02*
X190357000Y-94700000D01*
X189975000Y-99500000D02*
X189975000Y-95082000D01*
X190357000Y-94700000D02*
X191900000Y-94700000D01*
X190357000Y-94434100D02*
X190357000Y-94700000D01*
X195700000Y-90900000D02*
X203000000Y-90900000D01*
X191900000Y-94700000D02*
X195700000Y-90900000D01*
X162539000Y-93640300D02*
X164000000Y-92179700D01*
X162539000Y-100182000D02*
X162539000Y-93640300D01*
X164000000Y-90978000D02*
X164000000Y-92179700D01*
X162202000Y-114212000D02*
X162202000Y-113838000D01*
X163049000Y-115059000D02*
X162202000Y-114212000D01*
X169893000Y-115059000D02*
X163049000Y-115059000D01*
X170339000Y-114612000D02*
X169893000Y-115059000D01*
X170339000Y-113711000D02*
X170339000Y-114612000D01*
X171541000Y-113711000D02*
X170339000Y-113711000D01*
X161000000Y-113838000D02*
X162202000Y-113838000D01*
X162202000Y-106791000D02*
X162202000Y-113838000D01*
X163627000Y-105366000D02*
X162202000Y-106791000D01*
X163627000Y-101269000D02*
X163627000Y-105366000D01*
X162539000Y-100182000D02*
X163627000Y-101269000D01*
X190357000Y-94329200D02*
X190357000Y-94434100D01*
X180877000Y-84848900D02*
X190357000Y-94329200D01*
X170955000Y-84848900D02*
X180877000Y-84848900D01*
X165202000Y-90602500D02*
X170955000Y-84848900D01*
X165202000Y-90978000D02*
X165202000Y-90602500D01*
X164000000Y-90978000D02*
X165202000Y-90978000D01*
%TO.N,/SD_MISO_SPI*%
X170250000Y-97245700D02*
X165921000Y-97245700D01*
X170296000Y-97200000D02*
X170250000Y-97245700D01*
X170900000Y-97200000D02*
X170296000Y-97200000D01*
X139774000Y-97558400D02*
X148295000Y-97558400D01*
X133278000Y-91062600D02*
X139774000Y-97558400D01*
X133278000Y-90597000D02*
X133278000Y-91062600D01*
X132037000Y-90597000D02*
X133278000Y-90597000D01*
%TO.N,/SD_MOSI_SPI*%
X190000000Y-103000000D02*
X203400000Y-103000000D01*
X187800000Y-100800000D02*
X190000000Y-103000000D01*
X189159000Y-99440700D02*
X187800000Y-100800000D01*
X189159000Y-94573200D02*
X189159000Y-99440700D01*
X189423000Y-94309900D02*
X189159000Y-94573200D01*
%TO.N,/SD_CS_SPI*%
X203200000Y-99200000D02*
X202048000Y-99200000D01*
X201975000Y-99127000D02*
X192951000Y-99127000D01*
X202048000Y-99200000D02*
X201975000Y-99127000D01*
%TO.N,/VIN_5V0_MCU*%
X180753000Y-112730000D02*
X180753000Y-113711000D01*
X179756000Y-111733000D02*
X180753000Y-112730000D01*
X179536000Y-111733000D02*
X179756000Y-111733000D01*
X164995000Y-97192300D02*
X179536000Y-111733000D01*
X164995000Y-92185600D02*
X164995000Y-97192300D01*
X181955000Y-113711000D02*
X180753000Y-113711000D01*
%TD*%
%TA.AperFunction,Conductor*%
%TO.N,GND*%
G36*
X171167492Y-85241922D02*
G01*
X171224330Y-85284466D01*
X171249144Y-85350985D01*
X171245173Y-85392589D01*
X171241500Y-85406295D01*
X171241500Y-85406298D01*
X171241500Y-85406299D01*
X171241500Y-85552301D01*
X171265215Y-85640806D01*
X171279289Y-85693333D01*
X171352286Y-85819767D01*
X171352294Y-85819777D01*
X171455522Y-85923005D01*
X171455527Y-85923009D01*
X171455529Y-85923011D01*
X171455530Y-85923012D01*
X171455532Y-85923013D01*
X171581966Y-85996010D01*
X171581968Y-85996010D01*
X171581971Y-85996012D01*
X171722999Y-86033800D01*
X171723002Y-86033800D01*
X171728111Y-86035169D01*
X171788734Y-86072120D01*
X171819755Y-86135981D01*
X171821500Y-86156876D01*
X171821500Y-89716800D01*
X171801498Y-89784921D01*
X171747842Y-89831414D01*
X171695500Y-89842800D01*
X170034936Y-89842800D01*
X170034926Y-89842801D01*
X169960699Y-89857565D01*
X169876515Y-89913816D01*
X169820266Y-89997997D01*
X169805500Y-90072230D01*
X169805500Y-91922363D01*
X169805501Y-91922373D01*
X169820265Y-91996600D01*
X169876516Y-92080784D01*
X169960697Y-92137033D01*
X169960699Y-92137034D01*
X170034933Y-92151800D01*
X171695500Y-92151799D01*
X171763621Y-92171801D01*
X171810114Y-92225457D01*
X171821500Y-92277799D01*
X171821500Y-102123959D01*
X171801498Y-102192080D01*
X171747842Y-102238573D01*
X171728111Y-102245666D01*
X171583966Y-102284289D01*
X171457532Y-102357286D01*
X171457522Y-102357294D01*
X171354294Y-102460522D01*
X171354286Y-102460532D01*
X171281288Y-102586969D01*
X171255321Y-102683878D01*
X171218370Y-102744500D01*
X171154509Y-102775522D01*
X171084014Y-102767092D01*
X171044520Y-102740362D01*
X171032157Y-102727999D01*
X166207675Y-97903616D01*
X166173651Y-97841306D01*
X166178715Y-97770491D01*
X166221261Y-97713655D01*
X166233768Y-97705405D01*
X166261471Y-97689411D01*
X166313778Y-97637103D01*
X166376088Y-97603080D01*
X166402872Y-97600200D01*
X170249193Y-97600200D01*
X170249605Y-97600201D01*
X170295511Y-97600351D01*
X170295511Y-97600350D01*
X170295517Y-97600351D01*
X170295859Y-97600306D01*
X170296290Y-97600250D01*
X170296659Y-97600202D01*
X170296666Y-97600200D01*
X170296671Y-97600200D01*
X170341166Y-97588277D01*
X170385750Y-97576487D01*
X170385751Y-97576486D01*
X170392616Y-97574671D01*
X170395052Y-97573853D01*
X170395143Y-97573829D01*
X170395752Y-97576139D01*
X170454000Y-97569923D01*
X170517462Y-97601752D01*
X170520626Y-97604809D01*
X170559522Y-97643705D01*
X170559527Y-97643709D01*
X170559529Y-97643711D01*
X170559530Y-97643712D01*
X170559532Y-97643713D01*
X170685966Y-97716710D01*
X170685968Y-97716710D01*
X170685971Y-97716712D01*
X170826999Y-97754500D01*
X170827001Y-97754500D01*
X170972999Y-97754500D01*
X170973001Y-97754500D01*
X171114029Y-97716712D01*
X171114032Y-97716710D01*
X171114033Y-97716710D01*
X171177250Y-97680211D01*
X171240471Y-97643711D01*
X171343711Y-97540471D01*
X171416712Y-97414029D01*
X171454500Y-97273001D01*
X171454500Y-97126999D01*
X171416712Y-96985971D01*
X171416710Y-96985968D01*
X171416710Y-96985966D01*
X171343713Y-96859532D01*
X171343705Y-96859522D01*
X171240477Y-96756294D01*
X171240467Y-96756286D01*
X171114033Y-96683289D01*
X171097372Y-96678824D01*
X170973001Y-96645500D01*
X170826999Y-96645500D01*
X170740686Y-96668627D01*
X170685966Y-96683289D01*
X170559532Y-96756286D01*
X170559527Y-96756290D01*
X170533375Y-96782442D01*
X170507221Y-96808596D01*
X170444912Y-96842620D01*
X170418128Y-96845500D01*
X170296807Y-96845500D01*
X170296395Y-96845499D01*
X170250473Y-96845348D01*
X170250184Y-96845387D01*
X170249780Y-96845440D01*
X170249346Y-96845495D01*
X170205137Y-96857340D01*
X170204749Y-96857443D01*
X170160235Y-96869216D01*
X170159921Y-96869347D01*
X170159488Y-96869525D01*
X170159185Y-96869649D01*
X170151095Y-96874320D01*
X170088096Y-96891200D01*
X166402872Y-96891200D01*
X166334751Y-96871198D01*
X166313781Y-96854299D01*
X166261471Y-96801989D01*
X166261470Y-96801988D01*
X166261467Y-96801986D01*
X166135033Y-96728989D01*
X166118372Y-96724524D01*
X165994001Y-96691200D01*
X165847999Y-96691200D01*
X165761686Y-96714327D01*
X165706966Y-96728989D01*
X165580532Y-96801986D01*
X165580522Y-96801994D01*
X165564595Y-96817922D01*
X165502283Y-96851948D01*
X165431468Y-96846883D01*
X165374632Y-96804336D01*
X165349821Y-96737816D01*
X165349500Y-96728827D01*
X165349500Y-92667472D01*
X165369502Y-92599351D01*
X165386400Y-92578381D01*
X165438711Y-92526071D01*
X165487387Y-92441761D01*
X165511710Y-92399633D01*
X165511710Y-92399632D01*
X165511712Y-92399629D01*
X165549500Y-92258601D01*
X165549500Y-92112599D01*
X165511712Y-91971571D01*
X165438711Y-91845129D01*
X165414855Y-91821273D01*
X165414853Y-91821270D01*
X165335477Y-91741894D01*
X165335467Y-91741886D01*
X165209030Y-91668888D01*
X165125867Y-91646604D01*
X165065245Y-91609653D01*
X165034223Y-91545792D01*
X165042653Y-91475297D01*
X165046202Y-91467717D01*
X165069917Y-91421174D01*
X165070441Y-91419560D01*
X165070804Y-91419029D01*
X165071810Y-91416602D01*
X165072319Y-91416813D01*
X165110516Y-91360956D01*
X165175913Y-91333321D01*
X165190273Y-91332500D01*
X165248671Y-91332500D01*
X165310834Y-91315843D01*
X165381810Y-91317531D01*
X165440606Y-91357325D01*
X165463279Y-91398612D01*
X165470547Y-91420980D01*
X165470550Y-91420989D01*
X165553011Y-91582828D01*
X165612270Y-91664391D01*
X165662696Y-91732699D01*
X165788214Y-91858217D01*
X165788217Y-91858219D01*
X165935171Y-91964988D01*
X166097010Y-92047449D01*
X166097018Y-92047452D01*
X166269768Y-92103583D01*
X166413000Y-92126268D01*
X166413000Y-91565032D01*
X166461022Y-91577900D01*
X166618978Y-91577900D01*
X166667000Y-91565032D01*
X166667000Y-92126268D01*
X166810231Y-92103583D01*
X166982981Y-92047452D01*
X166982989Y-92047449D01*
X167144828Y-91964988D01*
X167291782Y-91858219D01*
X167291785Y-91858217D01*
X167420217Y-91729785D01*
X167420219Y-91729782D01*
X167526988Y-91582828D01*
X167609449Y-91420989D01*
X167609452Y-91420981D01*
X167665582Y-91248232D01*
X167688270Y-91105000D01*
X167127033Y-91105000D01*
X167139900Y-91056978D01*
X167139900Y-90899022D01*
X167127033Y-90851000D01*
X167688269Y-90851000D01*
X167665582Y-90707767D01*
X167609452Y-90535018D01*
X167609449Y-90535010D01*
X167526988Y-90373171D01*
X167420219Y-90226217D01*
X167420217Y-90226214D01*
X167291785Y-90097782D01*
X167291782Y-90097780D01*
X167144828Y-89991011D01*
X166982989Y-89908550D01*
X166982981Y-89908547D01*
X166810232Y-89852417D01*
X166746341Y-89842297D01*
X166682188Y-89811884D01*
X166644662Y-89751615D01*
X166645677Y-89680626D01*
X166676953Y-89628757D01*
X171034368Y-85270887D01*
X171096676Y-85236861D01*
X171167492Y-85241922D01*
G37*
%TD.AperFunction*%
%TA.AperFunction,Conductor*%
G36*
X203704137Y-81700702D02*
G01*
X204080083Y-81717958D01*
X204091571Y-81719015D01*
X204463026Y-81770455D01*
X204474372Y-81772560D01*
X204839561Y-81857815D01*
X204850643Y-81860944D01*
X205206487Y-81979295D01*
X205217259Y-81983436D01*
X205560750Y-82133882D01*
X205571093Y-82138990D01*
X205899355Y-82320269D01*
X205909194Y-82326307D01*
X206219475Y-82536900D01*
X206228723Y-82543817D01*
X206518388Y-82781934D01*
X206526968Y-82789673D01*
X206793602Y-83053325D01*
X206801438Y-83061818D01*
X207042800Y-83348792D01*
X207049824Y-83357966D01*
X207263886Y-83665849D01*
X207270040Y-83675630D01*
X207454994Y-84001826D01*
X207460226Y-84012127D01*
X207614515Y-84353880D01*
X207618782Y-84364619D01*
X207741118Y-84719085D01*
X207744383Y-84730169D01*
X207833731Y-85094346D01*
X207835967Y-85105683D01*
X207891578Y-85476515D01*
X207892766Y-85488008D01*
X207914172Y-85862387D01*
X207914301Y-85873942D01*
X207902913Y-86202702D01*
X207900460Y-86218958D01*
X207900822Y-86219007D01*
X207899716Y-86227198D01*
X207899580Y-86268873D01*
X207899173Y-86278587D01*
X207895821Y-86320141D01*
X207895822Y-86320145D01*
X207897250Y-86327936D01*
X207899314Y-86351062D01*
X207799742Y-117024416D01*
X207799500Y-117028039D01*
X207799500Y-117097241D01*
X207799380Y-117102737D01*
X207782617Y-117486661D01*
X207781659Y-117497611D01*
X207731860Y-117875876D01*
X207729951Y-117886701D01*
X207647373Y-118259186D01*
X207644528Y-118269804D01*
X207529802Y-118633668D01*
X207526043Y-118643997D01*
X207380034Y-118996494D01*
X207375388Y-119006456D01*
X207199223Y-119344866D01*
X207193727Y-119354386D01*
X206988734Y-119676162D01*
X206982429Y-119685166D01*
X206750160Y-119987863D01*
X206743095Y-119996283D01*
X206485343Y-120277570D01*
X206477570Y-120285343D01*
X206196283Y-120543095D01*
X206187863Y-120550160D01*
X205885166Y-120782429D01*
X205876162Y-120788734D01*
X205554386Y-120993727D01*
X205544866Y-120999223D01*
X205206456Y-121175388D01*
X205196494Y-121180034D01*
X204843997Y-121326043D01*
X204833668Y-121329802D01*
X204469804Y-121444528D01*
X204459186Y-121447373D01*
X204086701Y-121529951D01*
X204075876Y-121531860D01*
X203697611Y-121581659D01*
X203686661Y-121582617D01*
X203302793Y-121599377D01*
X203297209Y-121599497D01*
X193296126Y-121592550D01*
X193295351Y-121592500D01*
X193287617Y-121592500D01*
X193222405Y-121592500D01*
X193148398Y-121592448D01*
X193147606Y-121592500D01*
X101987748Y-121592500D01*
X101982252Y-121592380D01*
X101598338Y-121575617D01*
X101587388Y-121574659D01*
X101209123Y-121524860D01*
X101198298Y-121522951D01*
X100825813Y-121440373D01*
X100815195Y-121437528D01*
X100451331Y-121322802D01*
X100441002Y-121319043D01*
X100088505Y-121173034D01*
X100078543Y-121168388D01*
X99740133Y-120992223D01*
X99730613Y-120986727D01*
X99729105Y-120985766D01*
X99408829Y-120781728D01*
X99399833Y-120775429D01*
X99097136Y-120543160D01*
X99088716Y-120536095D01*
X98807429Y-120278343D01*
X98799656Y-120270570D01*
X98541904Y-119989283D01*
X98534839Y-119980863D01*
X98302570Y-119678166D01*
X98296274Y-119669174D01*
X98091267Y-119347378D01*
X98085781Y-119337875D01*
X97909611Y-118999456D01*
X97904965Y-118989494D01*
X97881764Y-118933483D01*
X97821738Y-118788567D01*
X97758956Y-118636997D01*
X97755197Y-118626668D01*
X97727695Y-118539442D01*
X97687649Y-118412432D01*
X99783500Y-118412432D01*
X99783500Y-118661567D01*
X99816016Y-118908558D01*
X99816018Y-118908565D01*
X99880498Y-119149207D01*
X99975836Y-119379373D01*
X99975837Y-119379374D01*
X99975842Y-119379385D01*
X100100398Y-119595123D01*
X100100400Y-119595126D01*
X100100401Y-119595127D01*
X100252062Y-119792776D01*
X100252066Y-119792780D01*
X100252071Y-119792786D01*
X100428213Y-119968928D01*
X100428218Y-119968932D01*
X100428224Y-119968938D01*
X100625873Y-120120599D01*
X100625876Y-120120601D01*
X100841614Y-120245157D01*
X100841618Y-120245158D01*
X100841627Y-120245164D01*
X101071793Y-120340502D01*
X101312435Y-120404982D01*
X101312439Y-120404982D01*
X101312441Y-120404983D01*
X101376099Y-120413363D01*
X101559435Y-120437500D01*
X101559442Y-120437500D01*
X101808558Y-120437500D01*
X101808565Y-120437500D01*
X102031790Y-120408111D01*
X102055558Y-120404983D01*
X102055558Y-120404982D01*
X102055565Y-120404982D01*
X102296207Y-120340502D01*
X102526373Y-120245164D01*
X102742127Y-120120599D01*
X102939776Y-119968938D01*
X103115938Y-119792776D01*
X103267599Y-119595127D01*
X103392164Y-119379373D01*
X103487502Y-119149207D01*
X103551982Y-118908565D01*
X103584500Y-118661565D01*
X103584500Y-118412435D01*
X103551982Y-118165435D01*
X103487502Y-117924793D01*
X103392164Y-117694627D01*
X103392158Y-117694618D01*
X103392157Y-117694614D01*
X103267601Y-117478876D01*
X103267599Y-117478873D01*
X103115938Y-117281224D01*
X103115932Y-117281218D01*
X103115928Y-117281213D01*
X102939786Y-117105071D01*
X102939780Y-117105066D01*
X102939776Y-117105062D01*
X102742127Y-116953401D01*
X102742126Y-116953400D01*
X102742123Y-116953398D01*
X102526385Y-116828842D01*
X102526377Y-116828838D01*
X102526373Y-116828836D01*
X102296207Y-116733498D01*
X102055565Y-116669018D01*
X102055558Y-116669016D01*
X101808567Y-116636500D01*
X101808565Y-116636500D01*
X101559435Y-116636500D01*
X101559432Y-116636500D01*
X101312441Y-116669016D01*
X101156738Y-116710737D01*
X101071793Y-116733498D01*
X100886462Y-116810265D01*
X100841625Y-116828837D01*
X100841614Y-116828842D01*
X100625876Y-116953398D01*
X100428224Y-117105062D01*
X100428213Y-117105071D01*
X100252071Y-117281213D01*
X100252062Y-117281224D01*
X100100398Y-117478876D01*
X99975842Y-117694614D01*
X99975837Y-117694625D01*
X99975836Y-117694627D01*
X99900760Y-117875876D01*
X99880498Y-117924793D01*
X99880497Y-117924797D01*
X99816016Y-118165441D01*
X99783500Y-118412432D01*
X97687649Y-118412432D01*
X97640467Y-118262789D01*
X97637626Y-118252186D01*
X97635435Y-118242305D01*
X97565534Y-117927000D01*
X97555048Y-117879701D01*
X97553139Y-117868876D01*
X97503340Y-117490611D01*
X97502382Y-117479661D01*
X97485620Y-117095748D01*
X97485500Y-117090252D01*
X97485500Y-112492177D01*
X115603200Y-112492177D01*
X115603200Y-113330000D01*
X116305109Y-113330000D01*
X116289000Y-113390120D01*
X116289000Y-113523880D01*
X116305109Y-113584000D01*
X115603201Y-113584000D01*
X115603201Y-114421822D01*
X115617937Y-114495905D01*
X115617937Y-114495907D01*
X115674075Y-114579924D01*
X115758093Y-114636062D01*
X115758094Y-114636063D01*
X115832180Y-114650799D01*
X116670000Y-114650799D01*
X116670000Y-113948891D01*
X116730120Y-113965000D01*
X116863880Y-113965000D01*
X116924000Y-113948891D01*
X116924000Y-114650799D01*
X117761814Y-114650799D01*
X117761822Y-114650798D01*
X117835905Y-114636062D01*
X117835907Y-114636062D01*
X117919924Y-114579924D01*
X117976062Y-114495906D01*
X117976063Y-114495905D01*
X117990799Y-114421822D01*
X117990799Y-113970431D01*
X118010801Y-113902310D01*
X118064456Y-113855817D01*
X118134730Y-113845713D01*
X118199311Y-113875206D01*
X118229066Y-113913228D01*
X118230197Y-113915447D01*
X118230199Y-113915452D01*
X118308090Y-114068323D01*
X118315545Y-114082953D01*
X118426040Y-114235036D01*
X118558963Y-114367959D01*
X118558966Y-114367961D01*
X118711050Y-114478457D01*
X118878548Y-114563801D01*
X119057334Y-114621892D01*
X119243007Y-114651300D01*
X119243010Y-114651300D01*
X119430990Y-114651300D01*
X119430993Y-114651300D01*
X119616666Y-114621892D01*
X119795452Y-114563801D01*
X119962950Y-114478457D01*
X120115034Y-114367961D01*
X120247961Y-114235034D01*
X120358457Y-114082950D01*
X120443801Y-113915452D01*
X120487167Y-113781985D01*
X120527241Y-113723379D01*
X120592637Y-113695742D01*
X120662594Y-113707849D01*
X120714900Y-113755855D01*
X120726833Y-113781985D01*
X120770199Y-113915452D01*
X120848717Y-114069553D01*
X120855545Y-114082953D01*
X120966040Y-114235036D01*
X121098963Y-114367959D01*
X121098966Y-114367961D01*
X121251050Y-114478457D01*
X121418548Y-114563801D01*
X121597334Y-114621892D01*
X121783007Y-114651300D01*
X121783010Y-114651300D01*
X121970990Y-114651300D01*
X121970993Y-114651300D01*
X122156666Y-114621892D01*
X122335452Y-114563801D01*
X122502950Y-114478457D01*
X122655034Y-114367961D01*
X122787961Y-114235034D01*
X122898457Y-114082950D01*
X122983801Y-113915452D01*
X123027167Y-113781985D01*
X123067241Y-113723379D01*
X123132637Y-113695742D01*
X123202594Y-113707849D01*
X123254900Y-113755855D01*
X123266833Y-113781985D01*
X123310199Y-113915452D01*
X123388717Y-114069553D01*
X123395545Y-114082953D01*
X123506040Y-114235036D01*
X123638963Y-114367959D01*
X123638966Y-114367961D01*
X123791050Y-114478457D01*
X123958548Y-114563801D01*
X124137334Y-114621892D01*
X124323007Y-114651300D01*
X124323010Y-114651300D01*
X124510990Y-114651300D01*
X124510993Y-114651300D01*
X124696666Y-114621892D01*
X124875452Y-114563801D01*
X125042950Y-114478457D01*
X125195034Y-114367961D01*
X125327961Y-114235034D01*
X125438457Y-114082950D01*
X125523801Y-113915452D01*
X125567167Y-113781985D01*
X125607241Y-113723379D01*
X125672637Y-113695742D01*
X125742594Y-113707849D01*
X125794900Y-113755855D01*
X125806833Y-113781985D01*
X125850199Y-113915452D01*
X125928717Y-114069553D01*
X125935545Y-114082953D01*
X126046040Y-114235036D01*
X126178963Y-114367959D01*
X126178966Y-114367961D01*
X126331050Y-114478457D01*
X126498548Y-114563801D01*
X126677334Y-114621892D01*
X126863007Y-114651300D01*
X126863010Y-114651300D01*
X127050990Y-114651300D01*
X127050993Y-114651300D01*
X127236666Y-114621892D01*
X127415452Y-114563801D01*
X127582950Y-114478457D01*
X127735034Y-114367961D01*
X127867961Y-114235034D01*
X127978457Y-114082950D01*
X128063801Y-113915452D01*
X128107167Y-113781985D01*
X128147241Y-113723379D01*
X128212637Y-113695742D01*
X128282594Y-113707849D01*
X128334900Y-113755855D01*
X128346833Y-113781985D01*
X128390199Y-113915452D01*
X128468717Y-114069553D01*
X128475545Y-114082953D01*
X128586040Y-114235036D01*
X128718963Y-114367959D01*
X128718966Y-114367961D01*
X128871050Y-114478457D01*
X129038548Y-114563801D01*
X129217334Y-114621892D01*
X129403007Y-114651300D01*
X129403010Y-114651300D01*
X129590990Y-114651300D01*
X129590993Y-114651300D01*
X129776666Y-114621892D01*
X129955452Y-114563801D01*
X130122950Y-114478457D01*
X130275034Y-114367961D01*
X130407961Y-114235034D01*
X130518457Y-114082950D01*
X130603801Y-113915452D01*
X130647167Y-113781985D01*
X130687241Y-113723379D01*
X130752637Y-113695742D01*
X130822594Y-113707849D01*
X130874900Y-113755855D01*
X130886833Y-113781985D01*
X130930199Y-113915452D01*
X131008717Y-114069553D01*
X131015545Y-114082953D01*
X131126040Y-114235036D01*
X131258963Y-114367959D01*
X131258966Y-114367961D01*
X131411050Y-114478457D01*
X131578548Y-114563801D01*
X131757334Y-114621892D01*
X131943007Y-114651300D01*
X131943010Y-114651300D01*
X132130990Y-114651300D01*
X132130993Y-114651300D01*
X132316666Y-114621892D01*
X132495452Y-114563801D01*
X132662950Y-114478457D01*
X132815034Y-114367961D01*
X132947961Y-114235034D01*
X133058457Y-114082950D01*
X133143801Y-113915452D01*
X133187167Y-113781985D01*
X133227241Y-113723379D01*
X133292637Y-113695742D01*
X133362594Y-113707849D01*
X133414900Y-113755855D01*
X133426833Y-113781985D01*
X133470199Y-113915452D01*
X133548717Y-114069553D01*
X133555545Y-114082953D01*
X133666040Y-114235036D01*
X133798963Y-114367959D01*
X133798966Y-114367961D01*
X133951050Y-114478457D01*
X134118548Y-114563801D01*
X134297334Y-114621892D01*
X134483007Y-114651300D01*
X134483010Y-114651300D01*
X134670990Y-114651300D01*
X134670993Y-114651300D01*
X134856666Y-114621892D01*
X135035452Y-114563801D01*
X135202950Y-114478457D01*
X135355034Y-114367961D01*
X135487961Y-114235034D01*
X135598457Y-114082950D01*
X135683801Y-113915452D01*
X135727167Y-113781985D01*
X135767241Y-113723379D01*
X135832637Y-113695742D01*
X135902594Y-113707849D01*
X135954900Y-113755855D01*
X135966833Y-113781985D01*
X136010199Y-113915452D01*
X136088717Y-114069553D01*
X136095545Y-114082953D01*
X136206040Y-114235036D01*
X136338963Y-114367959D01*
X136338966Y-114367961D01*
X136491050Y-114478457D01*
X136658548Y-114563801D01*
X136837334Y-114621892D01*
X137023007Y-114651300D01*
X137023010Y-114651300D01*
X137210990Y-114651300D01*
X137210993Y-114651300D01*
X137396666Y-114621892D01*
X137575452Y-114563801D01*
X137742950Y-114478457D01*
X137895034Y-114367961D01*
X138027961Y-114235034D01*
X138138457Y-114082950D01*
X138223801Y-113915452D01*
X138267430Y-113781174D01*
X138307503Y-113722569D01*
X138372900Y-113694932D01*
X138442857Y-113707039D01*
X138495163Y-113755045D01*
X138507096Y-113781175D01*
X138550661Y-113915255D01*
X138550664Y-113915261D01*
X138635973Y-114082690D01*
X138746422Y-114234710D01*
X138879289Y-114367577D01*
X139031309Y-114478026D01*
X139198738Y-114563335D01*
X139198741Y-114563336D01*
X139377448Y-114621403D01*
X139530000Y-114645564D01*
X139530000Y-113948891D01*
X139590120Y-113965000D01*
X139723880Y-113965000D01*
X139784000Y-113948891D01*
X139784000Y-114645564D01*
X139936551Y-114621403D01*
X140115258Y-114563336D01*
X140115261Y-114563335D01*
X140282690Y-114478026D01*
X140434710Y-114367577D01*
X140567577Y-114234710D01*
X140678026Y-114082690D01*
X140763335Y-113915261D01*
X140763336Y-113915258D01*
X140821403Y-113736551D01*
X140845566Y-113584000D01*
X140148891Y-113584000D01*
X140165000Y-113523880D01*
X140165000Y-113390120D01*
X140148891Y-113330000D01*
X140845565Y-113330000D01*
X140821403Y-113177448D01*
X140763336Y-112998741D01*
X140763335Y-112998738D01*
X140745608Y-112963946D01*
X140719614Y-112912930D01*
X157305500Y-112912930D01*
X157305500Y-114763063D01*
X157305501Y-114763073D01*
X157320265Y-114837300D01*
X157376516Y-114921484D01*
X157460697Y-114977733D01*
X157460699Y-114977734D01*
X157534933Y-114992500D01*
X159385066Y-114992499D01*
X159385069Y-114992498D01*
X159385073Y-114992498D01*
X159434326Y-114982701D01*
X159459301Y-114977734D01*
X159543484Y-114921484D01*
X159599734Y-114837301D01*
X159614500Y-114763067D01*
X159614499Y-114071357D01*
X159634501Y-114003239D01*
X159688157Y-113956746D01*
X159758430Y-113946642D01*
X159823011Y-113976135D01*
X159861395Y-114035862D01*
X159864947Y-114051645D01*
X159869906Y-114082950D01*
X159873929Y-114108352D01*
X159926458Y-114270018D01*
X159930083Y-114281174D01*
X160009939Y-114437900D01*
X160012585Y-114443093D01*
X160119398Y-114590108D01*
X160247891Y-114718601D01*
X160309092Y-114763066D01*
X160394910Y-114825417D01*
X160556826Y-114907917D01*
X160729654Y-114964072D01*
X160909139Y-114992500D01*
X160909142Y-114992500D01*
X161090858Y-114992500D01*
X161090861Y-114992500D01*
X161270346Y-114964072D01*
X161443174Y-114907917D01*
X161605090Y-114825417D01*
X161752106Y-114718603D01*
X161880603Y-114590106D01*
X161880616Y-114590087D01*
X161883350Y-114586887D01*
X161942795Y-114548069D01*
X162013790Y-114547551D01*
X162068269Y-114579608D01*
X162765329Y-115276668D01*
X162831332Y-115342671D01*
X162831333Y-115342672D01*
X162831335Y-115342673D01*
X162912161Y-115389337D01*
X162912168Y-115389341D01*
X163002329Y-115413500D01*
X169838143Y-115413500D01*
X169839072Y-115413560D01*
X169846724Y-115413551D01*
X169846726Y-115413552D01*
X169893397Y-115413500D01*
X169939671Y-115413500D01*
X169939673Y-115413500D01*
X169940063Y-115413448D01*
X169940068Y-115413448D01*
X169966828Y-115406244D01*
X169985099Y-115401327D01*
X169985240Y-115401289D01*
X170029826Y-115389343D01*
X170029828Y-115389341D01*
X170029832Y-115389341D01*
X170029834Y-115389339D01*
X170029841Y-115389337D01*
X170029990Y-115389275D01*
X170030191Y-115389190D01*
X170030201Y-115389188D01*
X170070153Y-115366061D01*
X170070297Y-115366025D01*
X170070277Y-115365990D01*
X170083314Y-115358462D01*
X170110668Y-115342671D01*
X170110675Y-115342663D01*
X170110855Y-115342526D01*
X170110973Y-115342433D01*
X170110985Y-115342427D01*
X170129230Y-115324139D01*
X170143435Y-115309904D01*
X170143537Y-115309801D01*
X170176671Y-115276668D01*
X170176672Y-115276665D01*
X170182191Y-115271147D01*
X170182800Y-115270448D01*
X170589469Y-114862869D01*
X170622671Y-114829668D01*
X170622678Y-114829655D01*
X170622909Y-114829354D01*
X170622914Y-114829350D01*
X170642992Y-114794483D01*
X170645786Y-114789631D01*
X170645858Y-114789505D01*
X170650816Y-114780917D01*
X170669341Y-114748832D01*
X170669344Y-114748820D01*
X170669414Y-114748653D01*
X170669489Y-114748469D01*
X170669494Y-114748461D01*
X170676619Y-114721749D01*
X170713500Y-114661088D01*
X170777325Y-114629994D01*
X170847830Y-114638343D01*
X170872422Y-114652290D01*
X170935910Y-114698417D01*
X171097826Y-114780917D01*
X171270654Y-114837072D01*
X171450139Y-114865500D01*
X171450142Y-114865500D01*
X171631858Y-114865500D01*
X171631861Y-114865500D01*
X171811346Y-114837072D01*
X171984174Y-114780917D01*
X172146090Y-114698417D01*
X172293106Y-114591603D01*
X172421603Y-114463106D01*
X172528417Y-114316090D01*
X172610917Y-114154174D01*
X172667072Y-113981346D01*
X172686805Y-113856757D01*
X172717217Y-113792607D01*
X172777485Y-113755080D01*
X172848474Y-113756094D01*
X172907646Y-113795327D01*
X172935702Y-113856760D01*
X172955416Y-113981231D01*
X173011547Y-114153981D01*
X173011550Y-114153989D01*
X173094011Y-114315828D01*
X173200780Y-114462782D01*
X173200782Y-114462785D01*
X173329214Y-114591217D01*
X173329217Y-114591219D01*
X173476171Y-114697988D01*
X173638010Y-114780449D01*
X173638018Y-114780452D01*
X173810768Y-114836583D01*
X173954000Y-114859268D01*
X173954000Y-114298032D01*
X174002022Y-114310900D01*
X174159978Y-114310900D01*
X174208000Y-114298032D01*
X174208000Y-114859268D01*
X174351231Y-114836583D01*
X174523981Y-114780452D01*
X174523989Y-114780449D01*
X174685828Y-114697988D01*
X174832782Y-114591219D01*
X174832785Y-114591217D01*
X174961217Y-114462785D01*
X174961219Y-114462782D01*
X175067988Y-114315828D01*
X175150449Y-114153989D01*
X175150452Y-114153981D01*
X175206582Y-113981232D01*
X175229270Y-113838000D01*
X174668033Y-113838000D01*
X174680900Y-113789978D01*
X174680900Y-113632022D01*
X174668033Y-113584000D01*
X175229269Y-113584000D01*
X175206582Y-113440767D01*
X175150452Y-113268018D01*
X175150449Y-113268010D01*
X175067988Y-113106171D01*
X174961219Y-112959217D01*
X174961217Y-112959214D01*
X174832785Y-112830782D01*
X174832782Y-112830780D01*
X174685828Y-112724011D01*
X174523989Y-112641550D01*
X174523981Y-112641547D01*
X174351232Y-112585417D01*
X174208000Y-112562730D01*
X174208000Y-113123967D01*
X174159978Y-113111100D01*
X174002022Y-113111100D01*
X173954000Y-113123967D01*
X173954000Y-112562730D01*
X173810767Y-112585417D01*
X173638018Y-112641547D01*
X173638010Y-112641550D01*
X173476171Y-112724011D01*
X173329217Y-112830780D01*
X173329214Y-112830782D01*
X173200782Y-112959214D01*
X173200780Y-112959217D01*
X173094011Y-113106171D01*
X173011550Y-113268010D01*
X173011547Y-113268018D01*
X172955416Y-113440768D01*
X172935702Y-113565239D01*
X172905289Y-113629392D01*
X172845021Y-113666919D01*
X172774031Y-113665905D01*
X172714860Y-113626672D01*
X172686804Y-113565240D01*
X172667072Y-113440654D01*
X172610917Y-113267826D01*
X172528417Y-113105910D01*
X172450416Y-112998552D01*
X172421601Y-112958891D01*
X172293108Y-112830398D01*
X172146093Y-112723585D01*
X172146092Y-112723584D01*
X172146090Y-112723583D01*
X171984174Y-112641083D01*
X171984171Y-112641082D01*
X171984169Y-112641081D01*
X171811351Y-112584929D01*
X171811347Y-112584928D01*
X171811346Y-112584928D01*
X171631861Y-112556500D01*
X171450139Y-112556500D01*
X171270654Y-112584928D01*
X171270648Y-112584929D01*
X171097830Y-112641081D01*
X171097824Y-112641084D01*
X170935906Y-112723585D01*
X170788891Y-112830398D01*
X170660398Y-112958891D01*
X170553585Y-113105906D01*
X170471084Y-113267824D01*
X170471081Y-113267832D01*
X170470559Y-113269439D01*
X170470195Y-113269970D01*
X170469190Y-113272398D01*
X170468680Y-113272186D01*
X170430484Y-113328044D01*
X170365087Y-113355679D01*
X170350727Y-113356500D01*
X170284070Y-113356500D01*
X170284070Y-113353600D01*
X170227776Y-113344811D01*
X170174686Y-113297673D01*
X170155499Y-113230838D01*
X170155499Y-112785936D01*
X170155498Y-112785927D01*
X170140734Y-112711699D01*
X170126055Y-112689730D01*
X170084484Y-112627516D01*
X170081648Y-112625621D01*
X170000302Y-112571266D01*
X169926067Y-112556500D01*
X168075936Y-112556500D01*
X168075926Y-112556501D01*
X168001699Y-112571265D01*
X167917515Y-112627516D01*
X167861266Y-112711697D01*
X167846500Y-112785930D01*
X167846500Y-112785933D01*
X167846500Y-113707849D01*
X167846501Y-114578500D01*
X167826499Y-114646621D01*
X167772843Y-114693114D01*
X167720501Y-114704500D01*
X164584162Y-114704500D01*
X164516041Y-114684498D01*
X164469548Y-114630842D01*
X164459444Y-114560568D01*
X164482226Y-114504439D01*
X164526988Y-114442828D01*
X164609449Y-114280989D01*
X164609452Y-114280981D01*
X164665582Y-114108232D01*
X164688270Y-113965000D01*
X164127033Y-113965000D01*
X164139900Y-113916978D01*
X164139900Y-113759022D01*
X164127033Y-113711000D01*
X164688269Y-113711000D01*
X164665582Y-113567767D01*
X164609452Y-113395018D01*
X164609449Y-113395010D01*
X164526988Y-113233171D01*
X164420219Y-113086217D01*
X164420217Y-113086214D01*
X164291785Y-112957782D01*
X164291782Y-112957780D01*
X164144828Y-112851011D01*
X163982989Y-112768550D01*
X163982981Y-112768547D01*
X163810232Y-112712417D01*
X163667000Y-112689730D01*
X163667000Y-113250967D01*
X163618978Y-113238100D01*
X163461022Y-113238100D01*
X163413000Y-113250967D01*
X163413000Y-112689730D01*
X163269767Y-112712417D01*
X163097018Y-112768547D01*
X163097010Y-112768550D01*
X162935171Y-112851011D01*
X162788217Y-112957780D01*
X162788214Y-112957782D01*
X162771595Y-112974402D01*
X162709283Y-113008428D01*
X162638468Y-113003363D01*
X162581632Y-112960816D01*
X162556821Y-112894296D01*
X162556500Y-112885307D01*
X162556500Y-106990029D01*
X162576502Y-106921908D01*
X162593405Y-106900934D01*
X163910665Y-105583674D01*
X163910671Y-105583668D01*
X163957341Y-105502832D01*
X163981500Y-105412671D01*
X163981500Y-105319329D01*
X163981500Y-101315586D01*
X163981521Y-101315508D01*
X163981500Y-101269500D01*
X163981500Y-101222329D01*
X163981478Y-101222247D01*
X163981478Y-101222166D01*
X163969541Y-101177700D01*
X163957341Y-101132168D01*
X163957299Y-101132096D01*
X163957278Y-101132016D01*
X163934141Y-101091984D01*
X163934126Y-101091925D01*
X163934112Y-101091934D01*
X163910671Y-101051332D01*
X163910670Y-101051331D01*
X163910574Y-101051205D01*
X163877908Y-101018569D01*
X163877912Y-101018564D01*
X163877869Y-101018530D01*
X163844668Y-100985329D01*
X163844667Y-100985328D01*
X163838973Y-100979634D01*
X163838679Y-100979376D01*
X163130445Y-100271792D01*
X163096392Y-100209496D01*
X163093500Y-100182656D01*
X163093500Y-100109000D01*
X163089091Y-100092544D01*
X163055712Y-99967971D01*
X163055710Y-99967968D01*
X163055710Y-99967966D01*
X162982713Y-99841532D01*
X162982705Y-99841522D01*
X162930405Y-99789222D01*
X162896379Y-99726910D01*
X162893500Y-99700127D01*
X162893500Y-93839368D01*
X162913502Y-93771247D01*
X162930417Y-93750260D01*
X162997207Y-93683488D01*
X164211254Y-92469772D01*
X164211286Y-92469755D01*
X164211285Y-92469754D01*
X164250747Y-92430291D01*
X164250761Y-92430277D01*
X164281418Y-92399629D01*
X164282584Y-92398463D01*
X164285127Y-92395992D01*
X164287339Y-92393902D01*
X164288905Y-92392143D01*
X164290090Y-92390960D01*
X164290267Y-92391137D01*
X164290331Y-92391077D01*
X164292509Y-92393383D01*
X164292802Y-92393676D01*
X164335122Y-92361970D01*
X164405936Y-92356877D01*
X164468262Y-92390877D01*
X164488321Y-92417008D01*
X164551286Y-92526067D01*
X164551288Y-92526070D01*
X164551289Y-92526071D01*
X164603596Y-92578378D01*
X164611372Y-92592618D01*
X164623192Y-92603738D01*
X164628037Y-92623138D01*
X164637620Y-92640688D01*
X164640500Y-92667472D01*
X164640500Y-97137898D01*
X164640499Y-97137916D01*
X164640499Y-97238975D01*
X164664659Y-97329132D01*
X164664662Y-97329140D01*
X164670360Y-97339007D01*
X164671356Y-97340732D01*
X164711329Y-97409968D01*
X164711331Y-97409970D01*
X164711334Y-97409974D01*
X164787696Y-97486336D01*
X164787710Y-97486347D01*
X177952526Y-110650892D01*
X179252329Y-111950668D01*
X179318332Y-112016671D01*
X179399168Y-112063341D01*
X179489329Y-112087500D01*
X179489332Y-112087500D01*
X179556971Y-112087500D01*
X179625092Y-112107502D01*
X179646066Y-112124405D01*
X179863066Y-112341405D01*
X179897092Y-112403717D01*
X179892027Y-112474532D01*
X179849480Y-112531368D01*
X179782960Y-112556179D01*
X179773971Y-112556500D01*
X178489936Y-112556500D01*
X178489926Y-112556501D01*
X178415699Y-112571265D01*
X178331515Y-112627516D01*
X178275266Y-112711697D01*
X178260500Y-112785930D01*
X178260500Y-114636063D01*
X178260501Y-114636073D01*
X178275265Y-114710300D01*
X178331516Y-114794484D01*
X178415697Y-114850733D01*
X178415699Y-114850734D01*
X178489933Y-114865500D01*
X180340066Y-114865499D01*
X180340069Y-114865498D01*
X180340073Y-114865498D01*
X180389326Y-114855701D01*
X180414301Y-114850734D01*
X180498484Y-114794484D01*
X180554734Y-114710301D01*
X180569500Y-114636067D01*
X180569499Y-114191160D01*
X180589501Y-114123040D01*
X180643156Y-114076547D01*
X180698070Y-114068323D01*
X180698070Y-114065500D01*
X180706329Y-114065500D01*
X180764727Y-114065500D01*
X180832848Y-114085502D01*
X180879341Y-114139158D01*
X180884558Y-114152559D01*
X180885083Y-114154174D01*
X180964939Y-114310900D01*
X180967585Y-114316093D01*
X181074398Y-114463108D01*
X181202891Y-114591601D01*
X181278619Y-114646621D01*
X181349910Y-114698417D01*
X181511826Y-114780917D01*
X181684654Y-114837072D01*
X181864139Y-114865500D01*
X181864142Y-114865500D01*
X182045858Y-114865500D01*
X182045861Y-114865500D01*
X182225346Y-114837072D01*
X182398174Y-114780917D01*
X182560090Y-114698417D01*
X182707106Y-114591603D01*
X182835603Y-114463106D01*
X182835605Y-114463102D01*
X182838806Y-114459356D01*
X182898254Y-114420543D01*
X182969249Y-114420033D01*
X183023727Y-114452096D01*
X183841853Y-115270437D01*
X186682690Y-118112019D01*
X186682769Y-118112108D01*
X186688328Y-118117667D01*
X186688329Y-118117668D01*
X186723754Y-118153093D01*
X186723761Y-118153107D01*
X186723765Y-118153104D01*
X186754311Y-118183658D01*
X186754346Y-118183684D01*
X186754843Y-118183966D01*
X186796963Y-118208283D01*
X186796976Y-118208297D01*
X186796979Y-118208293D01*
X186833674Y-118229485D01*
X186835179Y-118230385D01*
X186835194Y-118230391D01*
X186837297Y-118230912D01*
X186879792Y-118242299D01*
X186879805Y-118242301D01*
X186925282Y-118254494D01*
X186925284Y-118254494D01*
X186925329Y-118254500D01*
X186971953Y-118254500D01*
X187018625Y-118254506D01*
X187018628Y-118254505D01*
X187026959Y-118254506D01*
X187027064Y-118254500D01*
X189169501Y-118254500D01*
X189237622Y-118274502D01*
X189284115Y-118328158D01*
X189295501Y-118380500D01*
X189295501Y-118775072D01*
X189310265Y-118849300D01*
X189366516Y-118933484D01*
X189450697Y-118989733D01*
X189450699Y-118989734D01*
X189524933Y-119004500D01*
X191275066Y-119004499D01*
X191275069Y-119004498D01*
X191275073Y-119004498D01*
X191324982Y-118994571D01*
X191349301Y-118989734D01*
X191433484Y-118933484D01*
X191489734Y-118849301D01*
X191504500Y-118775067D01*
X191504499Y-117024934D01*
X191504498Y-117024930D01*
X191504498Y-117024926D01*
X191489734Y-116950699D01*
X191472547Y-116924977D01*
X194796000Y-116924977D01*
X194796000Y-117673000D01*
X195416392Y-117673000D01*
X195400000Y-117734174D01*
X195400000Y-117865826D01*
X195416392Y-117927000D01*
X194796001Y-117927000D01*
X194796001Y-118675022D01*
X194810737Y-118749105D01*
X194810737Y-118749107D01*
X194866875Y-118833124D01*
X194950893Y-118889262D01*
X194950894Y-118889263D01*
X195024980Y-118903999D01*
X195773000Y-118903999D01*
X195773000Y-118283608D01*
X195834174Y-118300000D01*
X195965826Y-118300000D01*
X196027000Y-118283608D01*
X196027000Y-118903999D01*
X196775014Y-118903999D01*
X196775022Y-118903998D01*
X196849105Y-118889262D01*
X196849107Y-118889262D01*
X196933124Y-118833124D01*
X196989262Y-118749106D01*
X196989263Y-118749105D01*
X197003999Y-118675022D01*
X197004000Y-118675015D01*
X197004000Y-118539432D01*
X200748500Y-118539432D01*
X200748500Y-118788567D01*
X200781016Y-119035558D01*
X200781018Y-119035565D01*
X200845498Y-119276207D01*
X200940836Y-119506373D01*
X200940837Y-119506374D01*
X200940842Y-119506385D01*
X201065398Y-119722123D01*
X201065400Y-119722126D01*
X201065401Y-119722127D01*
X201217062Y-119919776D01*
X201217066Y-119919780D01*
X201217071Y-119919786D01*
X201393213Y-120095928D01*
X201393218Y-120095932D01*
X201393224Y-120095938D01*
X201587691Y-120245157D01*
X201590876Y-120247601D01*
X201806614Y-120372157D01*
X201806618Y-120372158D01*
X201806627Y-120372164D01*
X202036793Y-120467502D01*
X202277435Y-120531982D01*
X202277439Y-120531982D01*
X202277441Y-120531983D01*
X202308676Y-120536095D01*
X202524435Y-120564500D01*
X202524442Y-120564500D01*
X202773558Y-120564500D01*
X202773565Y-120564500D01*
X202996790Y-120535111D01*
X203020558Y-120531983D01*
X203020558Y-120531982D01*
X203020565Y-120531982D01*
X203261207Y-120467502D01*
X203491373Y-120372164D01*
X203707127Y-120247599D01*
X203904776Y-120095938D01*
X204080938Y-119919776D01*
X204232599Y-119722127D01*
X204357164Y-119506373D01*
X204452502Y-119276207D01*
X204516982Y-119035565D01*
X204549500Y-118788565D01*
X204549500Y-118539435D01*
X204516982Y-118292435D01*
X204452502Y-118051793D01*
X204357164Y-117821627D01*
X204357158Y-117821618D01*
X204357157Y-117821614D01*
X204232601Y-117605876D01*
X204186273Y-117545500D01*
X204080938Y-117408224D01*
X204080932Y-117408218D01*
X204080928Y-117408213D01*
X203904786Y-117232071D01*
X203904780Y-117232066D01*
X203904776Y-117232062D01*
X203707127Y-117080401D01*
X203707126Y-117080400D01*
X203707123Y-117080398D01*
X203491385Y-116955842D01*
X203491377Y-116955838D01*
X203491373Y-116955836D01*
X203261207Y-116860498D01*
X203020565Y-116796018D01*
X203020558Y-116796016D01*
X202773567Y-116763500D01*
X202773565Y-116763500D01*
X202524435Y-116763500D01*
X202524432Y-116763500D01*
X202277441Y-116796016D01*
X202154953Y-116828837D01*
X202036793Y-116860498D01*
X201881106Y-116924986D01*
X201806625Y-116955837D01*
X201806614Y-116955842D01*
X201590876Y-117080398D01*
X201393224Y-117232062D01*
X201393213Y-117232071D01*
X201217071Y-117408213D01*
X201217062Y-117408224D01*
X201065398Y-117605876D01*
X200940842Y-117821614D01*
X200940837Y-117821625D01*
X200940836Y-117821627D01*
X200898103Y-117924793D01*
X200845498Y-118051793D01*
X200845497Y-118051797D01*
X200781016Y-118292441D01*
X200748500Y-118539432D01*
X197004000Y-118539432D01*
X197004000Y-117927000D01*
X196383608Y-117927000D01*
X196400000Y-117865826D01*
X196400000Y-117734174D01*
X196383608Y-117673000D01*
X197003999Y-117673000D01*
X197003999Y-116924986D01*
X197003998Y-116924977D01*
X196989262Y-116850894D01*
X196989262Y-116850892D01*
X196933124Y-116766875D01*
X196849106Y-116710737D01*
X196849105Y-116710736D01*
X196775022Y-116696000D01*
X196027000Y-116696000D01*
X196027000Y-117316391D01*
X195965826Y-117300000D01*
X195834174Y-117300000D01*
X195773000Y-117316391D01*
X195773000Y-116696000D01*
X195024986Y-116696000D01*
X195024976Y-116696001D01*
X194950894Y-116710737D01*
X194950892Y-116710737D01*
X194866875Y-116766875D01*
X194810737Y-116850893D01*
X194810736Y-116850894D01*
X194796000Y-116924977D01*
X191472547Y-116924977D01*
X191433483Y-116866515D01*
X191349302Y-116810266D01*
X191275067Y-116795500D01*
X189524936Y-116795500D01*
X189524926Y-116795501D01*
X189450699Y-116810265D01*
X189366515Y-116866516D01*
X189310266Y-116950697D01*
X189295500Y-117024930D01*
X189295500Y-117419500D01*
X189275498Y-117487621D01*
X189221842Y-117534114D01*
X189169500Y-117545500D01*
X187171067Y-117545500D01*
X187102946Y-117525498D01*
X187081960Y-117508584D01*
X186210104Y-116636500D01*
X184633936Y-115059918D01*
X184599920Y-114997603D01*
X184604994Y-114926788D01*
X184647548Y-114869958D01*
X184703333Y-114846387D01*
X184765231Y-114836583D01*
X184937981Y-114780452D01*
X184937989Y-114780449D01*
X185099828Y-114697988D01*
X185246782Y-114591219D01*
X185246785Y-114591217D01*
X185375217Y-114462785D01*
X185375219Y-114462782D01*
X185481988Y-114315828D01*
X185564449Y-114153989D01*
X185564452Y-114153981D01*
X185620582Y-113981232D01*
X185643270Y-113838000D01*
X185082033Y-113838000D01*
X185094900Y-113789978D01*
X185094900Y-113632022D01*
X185082033Y-113584000D01*
X185643269Y-113584000D01*
X185620582Y-113440767D01*
X185564452Y-113268018D01*
X185564449Y-113268010D01*
X185481988Y-113106171D01*
X185375219Y-112959217D01*
X185375217Y-112959214D01*
X185246785Y-112830782D01*
X185246782Y-112830780D01*
X185099828Y-112724011D01*
X184937989Y-112641550D01*
X184937981Y-112641547D01*
X184765232Y-112585417D01*
X184622000Y-112562730D01*
X184622000Y-113123967D01*
X184573978Y-113111100D01*
X184416022Y-113111100D01*
X184368000Y-113123967D01*
X184368000Y-112562730D01*
X184224767Y-112585417D01*
X184052018Y-112641547D01*
X184052010Y-112641550D01*
X183890171Y-112724011D01*
X183743217Y-112830780D01*
X183743214Y-112830782D01*
X183614782Y-112959214D01*
X183614780Y-112959217D01*
X183613024Y-112961634D01*
X183612122Y-112962328D01*
X183611565Y-112962982D01*
X183611427Y-112962864D01*
X183556797Y-113004983D01*
X183486061Y-113011052D01*
X183448115Y-112991026D01*
X183437244Y-112987834D01*
X183428092Y-112980458D01*
X183423272Y-112977915D01*
X183421999Y-112976659D01*
X183416279Y-112970939D01*
X183416274Y-112970935D01*
X183374668Y-112929329D01*
X183374667Y-112929328D01*
X183368310Y-112922971D01*
X183368267Y-112922934D01*
X183349464Y-112904133D01*
X182189219Y-111743999D01*
X185990500Y-111743999D01*
X185990500Y-111890001D01*
X185995057Y-111907007D01*
X186028289Y-112031033D01*
X186101286Y-112157467D01*
X186101294Y-112157477D01*
X186204522Y-112260705D01*
X186204527Y-112260709D01*
X186204529Y-112260711D01*
X186204530Y-112260712D01*
X186204532Y-112260713D01*
X186330966Y-112333710D01*
X186330968Y-112333710D01*
X186330971Y-112333712D01*
X186471999Y-112371500D01*
X186472001Y-112371500D01*
X186617999Y-112371500D01*
X186618001Y-112371500D01*
X186759029Y-112333712D01*
X186759032Y-112333710D01*
X186759033Y-112333710D01*
X186831088Y-112292109D01*
X186885471Y-112260711D01*
X186937778Y-112208403D01*
X187000088Y-112174380D01*
X187026872Y-112171500D01*
X187065971Y-112171500D01*
X187134092Y-112191502D01*
X187155066Y-112208405D01*
X188959918Y-114013256D01*
X188959939Y-114013279D01*
X189030325Y-114083665D01*
X189030330Y-114083669D01*
X189030332Y-114083671D01*
X189096151Y-114121671D01*
X189111168Y-114130341D01*
X189201328Y-114154500D01*
X189201329Y-114154500D01*
X189201332Y-114154500D01*
X189202112Y-114154709D01*
X189262735Y-114191661D01*
X189293756Y-114255521D01*
X189295501Y-114276416D01*
X189295501Y-114675072D01*
X189310265Y-114749300D01*
X189366516Y-114833484D01*
X189450697Y-114889733D01*
X189450699Y-114889734D01*
X189524933Y-114904500D01*
X191275066Y-114904499D01*
X191275069Y-114904498D01*
X191275073Y-114904498D01*
X191324326Y-114894701D01*
X191349301Y-114889734D01*
X191433484Y-114833484D01*
X191489734Y-114749301D01*
X191504500Y-114675067D01*
X191504499Y-113795327D01*
X191504499Y-113024977D01*
X194796000Y-113024977D01*
X194796000Y-113773000D01*
X195416392Y-113773000D01*
X195400000Y-113834174D01*
X195400000Y-113965826D01*
X195416392Y-114027000D01*
X194796001Y-114027000D01*
X194796001Y-114775022D01*
X194810737Y-114849105D01*
X194810737Y-114849107D01*
X194866875Y-114933124D01*
X194950893Y-114989262D01*
X194950894Y-114989263D01*
X195024980Y-115003999D01*
X195773000Y-115003999D01*
X195773000Y-114383608D01*
X195834174Y-114400000D01*
X195965826Y-114400000D01*
X196027000Y-114383608D01*
X196027000Y-115003999D01*
X196775014Y-115003999D01*
X196775022Y-115003998D01*
X196849105Y-114989262D01*
X196849107Y-114989262D01*
X196933124Y-114933124D01*
X196989262Y-114849106D01*
X196989263Y-114849105D01*
X197003999Y-114775022D01*
X197004000Y-114775015D01*
X197004000Y-114027000D01*
X196383608Y-114027000D01*
X196400000Y-113965826D01*
X196400000Y-113834174D01*
X196383608Y-113773000D01*
X197003999Y-113773000D01*
X197003999Y-113024986D01*
X197003998Y-113024977D01*
X196989262Y-112950894D01*
X196989262Y-112950892D01*
X196933124Y-112866875D01*
X196849106Y-112810737D01*
X196849105Y-112810736D01*
X196775022Y-112796000D01*
X196027000Y-112796000D01*
X196027000Y-113416391D01*
X195965826Y-113400000D01*
X195834174Y-113400000D01*
X195773000Y-113416391D01*
X195773000Y-112796000D01*
X195024986Y-112796000D01*
X195024976Y-112796001D01*
X194950894Y-112810737D01*
X194950892Y-112810737D01*
X194866875Y-112866875D01*
X194810737Y-112950893D01*
X194810736Y-112950894D01*
X194796000Y-113024977D01*
X191504499Y-113024977D01*
X191504499Y-113018793D01*
X191504499Y-112924936D01*
X191504498Y-112924926D01*
X191489734Y-112850699D01*
X191434841Y-112768547D01*
X191433484Y-112766516D01*
X191418773Y-112756686D01*
X191349302Y-112710266D01*
X191275067Y-112695500D01*
X189524936Y-112695500D01*
X189524926Y-112695501D01*
X189450699Y-112710265D01*
X189366515Y-112766516D01*
X189310266Y-112850697D01*
X189295500Y-112924930D01*
X189295500Y-113041971D01*
X189275498Y-113110092D01*
X189221842Y-113156585D01*
X189151568Y-113166689D01*
X189086988Y-113137195D01*
X189080405Y-113131066D01*
X187713244Y-111763904D01*
X187482674Y-111533334D01*
X187482664Y-111533326D01*
X187401833Y-111486659D01*
X187311674Y-111462500D01*
X187311671Y-111462500D01*
X187026872Y-111462500D01*
X186958751Y-111442498D01*
X186937781Y-111425599D01*
X186885471Y-111373289D01*
X186885470Y-111373288D01*
X186885467Y-111373286D01*
X186759033Y-111300289D01*
X186731803Y-111292993D01*
X186618001Y-111262500D01*
X186471999Y-111262500D01*
X186385686Y-111285627D01*
X186330966Y-111300289D01*
X186204532Y-111373286D01*
X186204522Y-111373294D01*
X186101294Y-111476522D01*
X186101286Y-111476532D01*
X186028289Y-111602966D01*
X186028288Y-111602971D01*
X185990500Y-111743999D01*
X182189219Y-111743999D01*
X181170099Y-110724977D01*
X201996000Y-110724977D01*
X201996000Y-111473000D01*
X202616392Y-111473000D01*
X202600000Y-111534174D01*
X202600000Y-111665826D01*
X202616392Y-111727000D01*
X201996001Y-111727000D01*
X201996001Y-112475022D01*
X202010737Y-112549105D01*
X202010737Y-112549107D01*
X202066875Y-112633124D01*
X202150893Y-112689262D01*
X202150894Y-112689263D01*
X202224980Y-112703999D01*
X202973000Y-112703999D01*
X202973000Y-112083608D01*
X203034174Y-112100000D01*
X203165826Y-112100000D01*
X203227000Y-112083608D01*
X203227000Y-112703999D01*
X203975014Y-112703999D01*
X203975022Y-112703998D01*
X204049105Y-112689262D01*
X204049107Y-112689262D01*
X204133124Y-112633124D01*
X204189262Y-112549106D01*
X204189263Y-112549105D01*
X204203999Y-112475022D01*
X204204000Y-112475015D01*
X204204000Y-111727000D01*
X203583608Y-111727000D01*
X203600000Y-111665826D01*
X203600000Y-111534174D01*
X203583608Y-111473000D01*
X204203999Y-111473000D01*
X204203999Y-110724986D01*
X204203998Y-110724977D01*
X204189262Y-110650894D01*
X204189262Y-110650892D01*
X204133124Y-110566875D01*
X204049106Y-110510737D01*
X204049105Y-110510736D01*
X203975022Y-110496000D01*
X203227000Y-110496000D01*
X203227000Y-111116391D01*
X203165826Y-111100000D01*
X203034174Y-111100000D01*
X202973000Y-111116391D01*
X202973000Y-110496000D01*
X202224986Y-110496000D01*
X202224976Y-110496001D01*
X202150894Y-110510737D01*
X202150892Y-110510737D01*
X202066875Y-110566875D01*
X202010737Y-110650893D01*
X202010736Y-110650894D01*
X201996000Y-110724977D01*
X181170099Y-110724977D01*
X173002734Y-102558395D01*
X173002734Y-102558394D01*
X173002728Y-102558389D01*
X172961665Y-102517326D01*
X172961655Y-102517320D01*
X172961654Y-102517319D01*
X172924350Y-102495784D01*
X172880832Y-102470659D01*
X172880824Y-102470657D01*
X172880816Y-102470652D01*
X172834387Y-102458213D01*
X172790671Y-102446500D01*
X172790661Y-102446500D01*
X172790654Y-102446498D01*
X172743983Y-102446500D01*
X172656500Y-102446500D01*
X172588379Y-102426498D01*
X172541886Y-102372842D01*
X172530500Y-102320500D01*
X172530500Y-91964700D01*
X172550502Y-91896579D01*
X172604158Y-91850086D01*
X172674432Y-91839982D01*
X172739012Y-91869476D01*
X172745595Y-91875605D01*
X172747891Y-91877901D01*
X172809092Y-91922366D01*
X172894910Y-91984717D01*
X173056826Y-92067217D01*
X173229654Y-92123372D01*
X173409139Y-92151800D01*
X173409142Y-92151800D01*
X173590858Y-92151800D01*
X173590861Y-92151800D01*
X173770346Y-92123372D01*
X173943174Y-92067217D01*
X174105090Y-91984717D01*
X174252106Y-91877903D01*
X174380603Y-91749406D01*
X174487417Y-91602390D01*
X174569917Y-91440474D01*
X174626072Y-91267646D01*
X174645805Y-91143057D01*
X174676217Y-91078907D01*
X174736485Y-91041380D01*
X174807474Y-91042394D01*
X174866646Y-91081627D01*
X174894702Y-91143060D01*
X174914416Y-91267531D01*
X174970547Y-91440281D01*
X174970550Y-91440289D01*
X175053011Y-91602128D01*
X175159780Y-91749082D01*
X175159782Y-91749085D01*
X175288214Y-91877517D01*
X175288217Y-91877519D01*
X175435171Y-91984288D01*
X175597010Y-92066749D01*
X175597018Y-92066752D01*
X175769768Y-92122883D01*
X175913000Y-92145568D01*
X175913000Y-91584332D01*
X175961022Y-91597200D01*
X176118978Y-91597200D01*
X176167000Y-91584332D01*
X176167000Y-92145568D01*
X176310231Y-92122883D01*
X176482981Y-92066752D01*
X176482989Y-92066749D01*
X176644828Y-91984288D01*
X176791782Y-91877519D01*
X176791785Y-91877517D01*
X176920217Y-91749085D01*
X176920219Y-91749082D01*
X177026988Y-91602128D01*
X177109449Y-91440289D01*
X177109452Y-91440281D01*
X177165582Y-91267532D01*
X177188270Y-91124300D01*
X176627033Y-91124300D01*
X176639900Y-91076278D01*
X176639900Y-90918322D01*
X176627033Y-90870300D01*
X177188269Y-90870300D01*
X177165582Y-90727067D01*
X177109452Y-90554318D01*
X177109449Y-90554310D01*
X177026988Y-90392471D01*
X176920219Y-90245517D01*
X176920217Y-90245514D01*
X176791785Y-90117082D01*
X176791782Y-90117080D01*
X176644828Y-90010311D01*
X176482989Y-89927850D01*
X176482981Y-89927847D01*
X176310232Y-89871717D01*
X176167000Y-89849030D01*
X176167000Y-90410267D01*
X176118978Y-90397400D01*
X175961022Y-90397400D01*
X175913000Y-90410267D01*
X175913000Y-89849030D01*
X175769767Y-89871717D01*
X175597018Y-89927847D01*
X175597010Y-89927850D01*
X175435171Y-90010311D01*
X175288217Y-90117080D01*
X175288214Y-90117082D01*
X175159782Y-90245514D01*
X175159780Y-90245517D01*
X175053011Y-90392471D01*
X174970550Y-90554310D01*
X174970547Y-90554318D01*
X174914416Y-90727068D01*
X174894702Y-90851539D01*
X174864289Y-90915692D01*
X174804021Y-90953219D01*
X174733031Y-90952205D01*
X174673860Y-90912972D01*
X174645804Y-90851540D01*
X174626072Y-90726954D01*
X174569917Y-90554126D01*
X174487417Y-90392210D01*
X174433012Y-90317328D01*
X174380601Y-90245191D01*
X174252108Y-90116698D01*
X174105093Y-90009885D01*
X174105092Y-90009884D01*
X174105090Y-90009883D01*
X173943174Y-89927383D01*
X173943171Y-89927382D01*
X173943169Y-89927381D01*
X173770351Y-89871229D01*
X173770347Y-89871228D01*
X173770346Y-89871228D01*
X173590861Y-89842800D01*
X173409139Y-89842800D01*
X173229654Y-89871228D01*
X173229648Y-89871229D01*
X173056830Y-89927381D01*
X173056824Y-89927384D01*
X172894906Y-90009885D01*
X172747891Y-90116698D01*
X172747888Y-90116701D01*
X172745595Y-90118995D01*
X172744508Y-90119588D01*
X172744127Y-90119914D01*
X172744058Y-90119833D01*
X172683283Y-90153021D01*
X172612468Y-90147956D01*
X172555632Y-90105409D01*
X172530821Y-90038889D01*
X172530500Y-90029900D01*
X172530500Y-85913614D01*
X172530543Y-85912948D01*
X172530500Y-85858421D01*
X172530500Y-85812024D01*
X172530464Y-85811753D01*
X172518353Y-85766700D01*
X172518326Y-85766599D01*
X172506341Y-85721868D01*
X172506338Y-85721864D01*
X172506233Y-85721608D01*
X172506233Y-85721607D01*
X172482863Y-85681202D01*
X172482839Y-85681162D01*
X172482814Y-85681116D01*
X172459673Y-85641034D01*
X172459497Y-85640806D01*
X172426551Y-85607911D01*
X172426557Y-85607904D01*
X172426483Y-85607844D01*
X172393668Y-85575029D01*
X172393667Y-85575028D01*
X172388113Y-85569474D01*
X172387618Y-85569039D01*
X172387405Y-85568826D01*
X172353379Y-85506514D01*
X172350500Y-85479731D01*
X172350500Y-85406300D01*
X172350500Y-85406299D01*
X172338633Y-85362010D01*
X172340323Y-85291034D01*
X172380118Y-85232238D01*
X172445382Y-85204291D01*
X172460340Y-85203400D01*
X180677967Y-85203400D01*
X180746088Y-85223402D01*
X180767063Y-85240305D01*
X181866127Y-86339404D01*
X189163047Y-93636555D01*
X189197071Y-93698868D01*
X189192005Y-93769683D01*
X189149457Y-93826518D01*
X189136951Y-93834768D01*
X189082530Y-93866188D01*
X189082522Y-93866194D01*
X188979294Y-93969422D01*
X188979286Y-93969432D01*
X188906289Y-94095866D01*
X188885162Y-94174713D01*
X188871706Y-94224936D01*
X188868500Y-94236900D01*
X188868500Y-94333595D01*
X188851538Y-94396736D01*
X188828830Y-94435948D01*
X188828684Y-94436303D01*
X188828662Y-94436356D01*
X188816705Y-94480981D01*
X188816661Y-94481144D01*
X188804558Y-94526069D01*
X188804509Y-94526443D01*
X188804500Y-94526509D01*
X188804500Y-94572897D01*
X188804427Y-94626965D01*
X188804500Y-94628071D01*
X188804500Y-99241701D01*
X188784498Y-99309822D01*
X188767604Y-99330787D01*
X187989564Y-100109000D01*
X187974981Y-100123586D01*
X187912673Y-100157618D01*
X187885876Y-100160500D01*
X187741999Y-100160500D01*
X187687231Y-100175175D01*
X187600966Y-100198289D01*
X187474532Y-100271286D01*
X187474522Y-100271294D01*
X187371294Y-100374522D01*
X187371286Y-100374532D01*
X187298289Y-100500966D01*
X187277162Y-100579813D01*
X187260500Y-100641999D01*
X187260500Y-100788001D01*
X187277440Y-100851221D01*
X187298289Y-100929033D01*
X187371286Y-101055467D01*
X187371294Y-101055477D01*
X187474522Y-101158705D01*
X187474527Y-101158709D01*
X187474529Y-101158711D01*
X187474530Y-101158712D01*
X187474532Y-101158713D01*
X187600966Y-101231710D01*
X187600968Y-101231710D01*
X187600971Y-101231712D01*
X187741999Y-101269500D01*
X187742002Y-101269500D01*
X187745126Y-101270337D01*
X187801610Y-101302949D01*
X189716329Y-103217668D01*
X189782332Y-103283671D01*
X189782333Y-103283672D01*
X189782335Y-103283673D01*
X189863166Y-103330340D01*
X189863168Y-103330341D01*
X189953329Y-103354500D01*
X190046671Y-103354500D01*
X202169501Y-103354500D01*
X202237622Y-103374502D01*
X202284115Y-103428158D01*
X202295501Y-103480500D01*
X202295501Y-103875072D01*
X202310265Y-103949300D01*
X202366516Y-104033484D01*
X202450697Y-104089733D01*
X202450699Y-104089734D01*
X202524933Y-104104500D01*
X204071500Y-104104499D01*
X204139621Y-104124501D01*
X204186114Y-104178157D01*
X204197500Y-104230499D01*
X204197500Y-104297866D01*
X204177498Y-104365987D01*
X204160562Y-104386994D01*
X202988119Y-105558569D01*
X202987885Y-105558775D01*
X202948852Y-105597808D01*
X202916385Y-105630251D01*
X202916343Y-105630306D01*
X202893112Y-105670543D01*
X202893091Y-105670580D01*
X202887433Y-105680372D01*
X202869702Y-105711057D01*
X202869662Y-105711154D01*
X202869294Y-105712529D01*
X202857883Y-105755113D01*
X202845517Y-105801198D01*
X202845260Y-105802156D01*
X202808286Y-105862765D01*
X202744414Y-105893763D01*
X202723565Y-105895500D01*
X202324936Y-105895500D01*
X202324926Y-105895501D01*
X202250699Y-105910265D01*
X202166515Y-105966516D01*
X202110266Y-106050697D01*
X202095500Y-106124930D01*
X202095500Y-107875063D01*
X202095501Y-107875073D01*
X202110265Y-107949300D01*
X202166516Y-108033484D01*
X202250697Y-108089733D01*
X202250699Y-108089734D01*
X202324933Y-108104500D01*
X204075066Y-108104499D01*
X204075069Y-108104498D01*
X204075073Y-108104498D01*
X204124326Y-108094701D01*
X204149301Y-108089734D01*
X204233484Y-108033484D01*
X204289734Y-107949301D01*
X204304500Y-107875067D01*
X204304499Y-106124934D01*
X204304498Y-106124930D01*
X204304498Y-106124926D01*
X204289734Y-106050699D01*
X204233483Y-105966515D01*
X204149302Y-105910266D01*
X204075069Y-105895500D01*
X204075067Y-105895500D01*
X203958337Y-105895500D01*
X203890216Y-105875498D01*
X203843723Y-105821842D01*
X203833619Y-105751568D01*
X203863113Y-105686988D01*
X203869257Y-105680389D01*
X204763438Y-104786870D01*
X204763671Y-104786667D01*
X204769665Y-104780672D01*
X204769668Y-104780671D01*
X204803147Y-104747191D01*
X204835590Y-104714773D01*
X204835592Y-104714768D01*
X204835614Y-104714747D01*
X204835655Y-104714693D01*
X204835667Y-104714671D01*
X204835671Y-104714668D01*
X204858908Y-104674419D01*
X204858909Y-104674417D01*
X204858911Y-104674418D01*
X204858924Y-104674390D01*
X204882291Y-104633954D01*
X204882292Y-104633949D01*
X204882315Y-104633910D01*
X204882326Y-104633884D01*
X204882339Y-104633835D01*
X204882341Y-104633832D01*
X204894116Y-104589886D01*
X204894116Y-104589885D01*
X204894127Y-104589888D01*
X204894128Y-104589838D01*
X204906483Y-104543802D01*
X204906483Y-104543798D01*
X204906500Y-104543671D01*
X204906500Y-104498464D01*
X204906518Y-104450460D01*
X204906517Y-104450456D01*
X204906520Y-104442495D01*
X204906500Y-104442171D01*
X204906500Y-98398214D01*
X204906502Y-98351543D01*
X204906500Y-98351538D01*
X204906501Y-98351535D01*
X204906500Y-98351531D01*
X204906500Y-98351529D01*
X204895925Y-98312067D01*
X204883911Y-98267222D01*
X204882829Y-98262230D01*
X204882687Y-98261871D01*
X204881267Y-98259508D01*
X204876180Y-98250697D01*
X204861806Y-98225800D01*
X204837541Y-98183766D01*
X204836046Y-98180989D01*
X204835810Y-98180671D01*
X204835671Y-98180532D01*
X204810181Y-98155042D01*
X204810179Y-98155039D01*
X204810179Y-98155040D01*
X203581618Y-96926382D01*
X203581594Y-96926355D01*
X203560468Y-96905229D01*
X203531561Y-96876322D01*
X203531560Y-96876320D01*
X203531560Y-96876321D01*
X203526437Y-96871198D01*
X203509679Y-96854438D01*
X203509676Y-96854436D01*
X203509669Y-96854429D01*
X203468135Y-96830449D01*
X203468135Y-96830448D01*
X203468131Y-96830447D01*
X203428844Y-96807763D01*
X203428835Y-96807760D01*
X203428832Y-96807759D01*
X203383082Y-96795500D01*
X203369885Y-96791963D01*
X203338688Y-96783602D01*
X203338680Y-96783601D01*
X203338675Y-96783600D01*
X203338671Y-96783600D01*
X203292014Y-96783600D01*
X203245343Y-96783598D01*
X203245341Y-96783598D01*
X203236580Y-96783598D01*
X203236552Y-96783600D01*
X203071004Y-96783600D01*
X203002883Y-96763598D01*
X202981916Y-96746703D01*
X202973027Y-96737816D01*
X202654756Y-96419601D01*
X202620727Y-96357293D01*
X202625785Y-96286477D01*
X202668327Y-96229637D01*
X202734845Y-96204821D01*
X202743845Y-96204499D01*
X203875064Y-96204499D01*
X203875066Y-96204499D01*
X203875069Y-96204498D01*
X203875072Y-96204498D01*
X203911663Y-96197219D01*
X203949301Y-96189734D01*
X204033484Y-96133484D01*
X204089734Y-96049301D01*
X204104500Y-95975067D01*
X204104499Y-94224934D01*
X204104498Y-94224930D01*
X204104498Y-94224926D01*
X204089734Y-94150699D01*
X204072520Y-94124937D01*
X204033484Y-94066516D01*
X204033483Y-94066515D01*
X203949302Y-94010266D01*
X203875067Y-93995500D01*
X202124936Y-93995500D01*
X202124926Y-93995501D01*
X202050699Y-94010265D01*
X201966515Y-94066516D01*
X201910266Y-94150697D01*
X201895500Y-94224930D01*
X201895500Y-95356327D01*
X201875498Y-95424448D01*
X201821842Y-95470941D01*
X201751568Y-95481045D01*
X201686988Y-95451551D01*
X201680412Y-95445430D01*
X201016412Y-94781547D01*
X200982382Y-94719238D01*
X200979500Y-94692444D01*
X200979500Y-94682072D01*
X200999502Y-94613951D01*
X201016400Y-94592981D01*
X201068711Y-94540671D01*
X201141712Y-94414229D01*
X201179500Y-94273201D01*
X201179500Y-94127199D01*
X201141712Y-93986171D01*
X201141710Y-93986168D01*
X201141710Y-93986166D01*
X201068713Y-93859732D01*
X201068705Y-93859722D01*
X200965477Y-93756494D01*
X200965467Y-93756486D01*
X200839033Y-93683489D01*
X200822372Y-93679024D01*
X200698001Y-93645700D01*
X200551999Y-93645700D01*
X200465686Y-93668827D01*
X200410966Y-93683489D01*
X200284532Y-93756486D01*
X200284522Y-93756494D01*
X200181294Y-93859722D01*
X200181286Y-93859732D01*
X200108289Y-93986166D01*
X200103870Y-94002658D01*
X200070500Y-94127199D01*
X200070500Y-94273201D01*
X200095730Y-94367360D01*
X200108289Y-94414233D01*
X200181286Y-94540667D01*
X200181288Y-94540670D01*
X200181289Y-94540671D01*
X200233596Y-94592978D01*
X200267620Y-94655288D01*
X200270500Y-94682072D01*
X200270500Y-94836608D01*
X200270495Y-94836686D01*
X200270500Y-94891531D01*
X200270500Y-94938186D01*
X200270503Y-94938200D01*
X200270504Y-94938203D01*
X200272371Y-94945168D01*
X200282689Y-94983660D01*
X200282690Y-94983671D01*
X200282691Y-94983671D01*
X200294662Y-95028347D01*
X200316144Y-95065547D01*
X200316150Y-95065557D01*
X200341329Y-95109169D01*
X200341343Y-95109187D01*
X200369487Y-95137326D01*
X200369486Y-95137326D01*
X200369495Y-95137334D01*
X200412751Y-95180591D01*
X200412818Y-95180650D01*
X202620590Y-97388029D01*
X202642527Y-97409966D01*
X202654332Y-97421771D01*
X202654359Y-97421792D01*
X202677528Y-97435165D01*
X202677529Y-97435165D01*
X202691695Y-97443342D01*
X202735168Y-97468441D01*
X202735185Y-97468445D01*
X202735198Y-97468453D01*
X202778396Y-97480024D01*
X202825329Y-97492600D01*
X202825345Y-97492600D01*
X202825360Y-97492604D01*
X202872032Y-97492600D01*
X203092959Y-97492600D01*
X203161080Y-97512602D01*
X203182058Y-97529508D01*
X203532930Y-97880408D01*
X203566953Y-97942722D01*
X203561885Y-98013537D01*
X203519336Y-98070371D01*
X203452815Y-98095179D01*
X203443831Y-98095500D01*
X202324936Y-98095500D01*
X202324926Y-98095501D01*
X202250699Y-98110265D01*
X202166515Y-98166516D01*
X202110266Y-98250697D01*
X202095500Y-98324930D01*
X202095500Y-98646500D01*
X202075498Y-98714621D01*
X202021842Y-98761114D01*
X201969500Y-98772500D01*
X193432872Y-98772500D01*
X193364751Y-98752498D01*
X193343781Y-98735599D01*
X193291471Y-98683289D01*
X193291470Y-98683288D01*
X193291467Y-98683286D01*
X193165033Y-98610289D01*
X193148372Y-98605824D01*
X193024001Y-98572500D01*
X192877999Y-98572500D01*
X192791686Y-98595627D01*
X192736966Y-98610289D01*
X192610532Y-98683286D01*
X192610522Y-98683294D01*
X192507294Y-98786522D01*
X192507286Y-98786532D01*
X192434288Y-98912969D01*
X192411403Y-98998375D01*
X192374451Y-99058998D01*
X192310590Y-99090019D01*
X192240096Y-99081589D01*
X192185350Y-99036386D01*
X192179803Y-99025578D01*
X192179051Y-99025989D01*
X192174734Y-99018083D01*
X192092186Y-98907813D01*
X191981920Y-98825268D01*
X191852860Y-98777131D01*
X191795832Y-98771000D01*
X191652000Y-98771000D01*
X191652000Y-99373000D01*
X192228999Y-99373000D01*
X192254737Y-99347262D01*
X192317049Y-99313237D01*
X192387865Y-99318301D01*
X192444701Y-99360847D01*
X192452952Y-99373357D01*
X192507286Y-99467467D01*
X192507294Y-99467477D01*
X192610522Y-99570705D01*
X192610527Y-99570709D01*
X192610529Y-99570711D01*
X192610530Y-99570712D01*
X192610532Y-99570713D01*
X192736966Y-99643710D01*
X192736968Y-99643710D01*
X192736971Y-99643712D01*
X192877999Y-99681500D01*
X192878001Y-99681500D01*
X193023999Y-99681500D01*
X193024001Y-99681500D01*
X193165029Y-99643712D01*
X193165032Y-99643710D01*
X193165033Y-99643710D01*
X193255184Y-99591661D01*
X193291471Y-99570711D01*
X193343778Y-99518403D01*
X193406088Y-99484380D01*
X193432872Y-99481500D01*
X201792810Y-99481500D01*
X201855810Y-99498381D01*
X201911163Y-99530339D01*
X201911165Y-99530339D01*
X201911168Y-99530341D01*
X202001329Y-99554500D01*
X202001332Y-99554500D01*
X202002112Y-99554709D01*
X202062735Y-99591661D01*
X202093756Y-99655522D01*
X202095501Y-99676416D01*
X202095501Y-100075072D01*
X202110265Y-100149300D01*
X202166516Y-100233484D01*
X202250697Y-100289733D01*
X202250699Y-100289734D01*
X202324933Y-100304500D01*
X204071500Y-100304499D01*
X204139621Y-100324501D01*
X204186114Y-100378157D01*
X204197500Y-100430499D01*
X204197500Y-101769500D01*
X204177498Y-101837621D01*
X204123842Y-101884114D01*
X204071500Y-101895500D01*
X202524936Y-101895500D01*
X202524926Y-101895501D01*
X202450699Y-101910265D01*
X202366515Y-101966516D01*
X202310266Y-102050697D01*
X202295500Y-102124930D01*
X202295500Y-102519500D01*
X202275498Y-102587621D01*
X202221842Y-102634114D01*
X202169500Y-102645500D01*
X190199029Y-102645500D01*
X190130908Y-102625498D01*
X190109934Y-102608595D01*
X188403999Y-100902660D01*
X188369973Y-100840348D01*
X188371034Y-100796530D01*
X188368422Y-100796187D01*
X188369500Y-100787999D01*
X188369500Y-100783950D01*
X188370466Y-100780657D01*
X188370578Y-100779812D01*
X188370709Y-100779829D01*
X188389502Y-100715829D01*
X188406391Y-100694868D01*
X189133851Y-99967246D01*
X189196157Y-99933216D01*
X189266973Y-99938273D01*
X189323814Y-99980814D01*
X189323821Y-99980823D01*
X189325496Y-99983060D01*
X189407455Y-100092543D01*
X189407457Y-100092545D01*
X189517832Y-100175172D01*
X189517833Y-100175173D01*
X189517835Y-100175173D01*
X189517837Y-100175175D01*
X189647027Y-100223360D01*
X189704136Y-100229500D01*
X189704141Y-100229500D01*
X190245859Y-100229500D01*
X190245864Y-100229500D01*
X190302973Y-100223360D01*
X190432163Y-100175175D01*
X190542544Y-100092544D01*
X190625175Y-99982163D01*
X190632211Y-99963296D01*
X190674755Y-99906464D01*
X190741274Y-99881651D01*
X190810649Y-99896741D01*
X190860852Y-99946942D01*
X190868321Y-99963295D01*
X190875267Y-99981919D01*
X190957813Y-100092186D01*
X191068079Y-100174731D01*
X191197139Y-100222868D01*
X191254167Y-100228999D01*
X191254184Y-100229000D01*
X191398000Y-100229000D01*
X191652000Y-100229000D01*
X191795816Y-100229000D01*
X191795832Y-100228999D01*
X191852860Y-100222868D01*
X191981920Y-100174731D01*
X192092186Y-100092186D01*
X192174731Y-99981920D01*
X192222868Y-99852860D01*
X192228999Y-99795832D01*
X192229000Y-99795815D01*
X192229000Y-99627000D01*
X191652000Y-99627000D01*
X191652000Y-100229000D01*
X191398000Y-100229000D01*
X191398000Y-98771000D01*
X191254167Y-98771000D01*
X191197139Y-98777131D01*
X191068079Y-98825268D01*
X190957813Y-98907813D01*
X190875266Y-99018082D01*
X190868320Y-99036705D01*
X190825772Y-99093539D01*
X190759251Y-99118348D01*
X190689877Y-99103255D01*
X190639677Y-99053051D01*
X190632210Y-99036700D01*
X190628215Y-99025989D01*
X190625175Y-99017837D01*
X190625174Y-99017835D01*
X190625172Y-99017832D01*
X190575670Y-98951707D01*
X190542544Y-98907456D01*
X190432163Y-98824825D01*
X190432160Y-98824824D01*
X190432159Y-98824823D01*
X190411466Y-98817105D01*
X190354631Y-98774558D01*
X190329821Y-98708037D01*
X190329500Y-98699050D01*
X190329500Y-95281029D01*
X190349502Y-95212908D01*
X190366405Y-95191934D01*
X190466934Y-95091405D01*
X190529246Y-95057379D01*
X190556029Y-95054500D01*
X190838044Y-95054500D01*
X190906165Y-95074502D01*
X190952658Y-95128158D01*
X190956099Y-95136467D01*
X190970535Y-95175171D01*
X190977658Y-95194267D01*
X191064596Y-95310404D01*
X191180733Y-95397342D01*
X191316658Y-95448040D01*
X191376745Y-95454500D01*
X192423254Y-95454499D01*
X192483342Y-95448040D01*
X192619267Y-95397342D01*
X192735404Y-95310404D01*
X192822342Y-95194267D01*
X192873040Y-95058342D01*
X192879500Y-94998255D01*
X192879499Y-94401746D01*
X192873040Y-94341658D01*
X192870541Y-94334960D01*
X192865477Y-94264146D01*
X192899499Y-94201838D01*
X195809934Y-91291405D01*
X195872246Y-91257379D01*
X195899029Y-91254500D01*
X201769501Y-91254500D01*
X201837622Y-91274502D01*
X201884115Y-91328158D01*
X201895501Y-91380500D01*
X201895501Y-91775072D01*
X201910265Y-91849300D01*
X201966516Y-91933484D01*
X202050697Y-91989733D01*
X202050699Y-91989734D01*
X202124933Y-92004500D01*
X203875066Y-92004499D01*
X203875069Y-92004498D01*
X203875073Y-92004498D01*
X203927812Y-91994008D01*
X203949301Y-91989734D01*
X204033484Y-91933484D01*
X204089734Y-91849301D01*
X204104500Y-91775067D01*
X204104499Y-90024934D01*
X204104498Y-90024930D01*
X204104498Y-90024926D01*
X204089734Y-89950699D01*
X204074467Y-89927850D01*
X204033484Y-89866516D01*
X204020090Y-89857566D01*
X203949302Y-89810266D01*
X203875067Y-89795500D01*
X202124936Y-89795500D01*
X202124926Y-89795501D01*
X202050699Y-89810265D01*
X201966515Y-89866516D01*
X201910266Y-89950697D01*
X201895500Y-90024930D01*
X201895500Y-90419500D01*
X201875498Y-90487621D01*
X201821842Y-90534114D01*
X201769500Y-90545500D01*
X195754405Y-90545500D01*
X195754389Y-90545499D01*
X195746671Y-90545499D01*
X195653329Y-90545499D01*
X195653325Y-90545499D01*
X195563172Y-90569656D01*
X195482333Y-90616328D01*
X195482325Y-90616334D01*
X193094095Y-93004564D01*
X193031783Y-93038590D01*
X192960967Y-93033525D01*
X192904132Y-92990978D01*
X192881023Y-92929022D01*
X192879001Y-92927000D01*
X192027000Y-92927000D01*
X192027000Y-93553999D01*
X192240470Y-93553999D01*
X192308591Y-93574001D01*
X192355084Y-93627657D01*
X192365188Y-93697931D01*
X192335694Y-93762511D01*
X192329565Y-93769095D01*
X192190063Y-93908596D01*
X192127751Y-93942621D01*
X192100968Y-93945500D01*
X191376753Y-93945500D01*
X191376729Y-93945502D01*
X191316660Y-93951959D01*
X191316658Y-93951959D01*
X191180733Y-94002657D01*
X191064594Y-94089597D01*
X191028773Y-94137448D01*
X190971937Y-94179994D01*
X190901122Y-94185058D01*
X190838810Y-94151033D01*
X190818788Y-94124940D01*
X190800711Y-94093629D01*
X190800708Y-94093626D01*
X190800705Y-94093622D01*
X190697477Y-93990394D01*
X190697467Y-93990386D01*
X190571033Y-93917389D01*
X190433576Y-93880558D01*
X190377090Y-93847945D01*
X190298830Y-93769683D01*
X189627370Y-93098202D01*
X190921001Y-93098202D01*
X190921002Y-93098226D01*
X190927452Y-93158232D01*
X190927452Y-93158234D01*
X190978100Y-93294023D01*
X191064952Y-93410047D01*
X191180976Y-93496899D01*
X191180975Y-93496899D01*
X191316761Y-93547546D01*
X191316769Y-93547548D01*
X191376785Y-93553999D01*
X191773000Y-93553999D01*
X191773000Y-92927000D01*
X190921001Y-92927000D01*
X190921001Y-93098202D01*
X189627370Y-93098202D01*
X189030964Y-92501777D01*
X190921000Y-92501777D01*
X190921000Y-92673000D01*
X191773000Y-92673000D01*
X192027000Y-92673000D01*
X192878999Y-92673000D01*
X192878999Y-92501797D01*
X192878997Y-92501773D01*
X192872547Y-92441767D01*
X192872547Y-92441765D01*
X192821899Y-92305976D01*
X192735047Y-92189952D01*
X192619023Y-92103100D01*
X192619024Y-92103100D01*
X192483238Y-92052453D01*
X192483230Y-92052451D01*
X192423222Y-92046000D01*
X192027000Y-92046000D01*
X192027000Y-92673000D01*
X191773000Y-92673000D01*
X191773000Y-92046000D01*
X191376797Y-92046000D01*
X191376773Y-92046002D01*
X191316767Y-92052452D01*
X191316765Y-92052452D01*
X191180976Y-92103100D01*
X191064952Y-92189952D01*
X190978100Y-92305976D01*
X190927453Y-92441761D01*
X190927451Y-92441769D01*
X190921000Y-92501777D01*
X189030964Y-92501777D01*
X188595162Y-92065961D01*
X187395271Y-90866032D01*
X181667853Y-85138432D01*
X200240500Y-85138432D01*
X200240500Y-85387567D01*
X200273016Y-85634558D01*
X200273018Y-85634565D01*
X200337498Y-85875207D01*
X200432836Y-86105373D01*
X200432837Y-86105374D01*
X200432842Y-86105385D01*
X200557398Y-86321123D01*
X200557400Y-86321126D01*
X200557401Y-86321127D01*
X200709062Y-86518776D01*
X200709066Y-86518780D01*
X200709071Y-86518786D01*
X200885213Y-86694928D01*
X200885218Y-86694932D01*
X200885224Y-86694938D01*
X201082873Y-86846599D01*
X201082876Y-86846601D01*
X201298614Y-86971157D01*
X201298618Y-86971158D01*
X201298627Y-86971164D01*
X201528793Y-87066502D01*
X201769435Y-87130982D01*
X201769439Y-87130982D01*
X201769441Y-87130983D01*
X201833099Y-87139363D01*
X202016435Y-87163500D01*
X202016442Y-87163500D01*
X202265558Y-87163500D01*
X202265565Y-87163500D01*
X202488790Y-87134111D01*
X202512558Y-87130983D01*
X202512558Y-87130982D01*
X202512565Y-87130982D01*
X202753207Y-87066502D01*
X202983373Y-86971164D01*
X203199127Y-86846599D01*
X203396776Y-86694938D01*
X203572938Y-86518776D01*
X203724599Y-86321127D01*
X203849164Y-86105373D01*
X203944502Y-85875207D01*
X204008982Y-85634565D01*
X204041500Y-85387565D01*
X204041500Y-85138435D01*
X204008982Y-84891435D01*
X203944502Y-84650793D01*
X203849164Y-84420627D01*
X203849158Y-84420618D01*
X203849157Y-84420614D01*
X203724601Y-84204876D01*
X203724599Y-84204873D01*
X203572938Y-84007224D01*
X203572932Y-84007218D01*
X203572928Y-84007213D01*
X203396786Y-83831071D01*
X203396780Y-83831066D01*
X203396776Y-83831062D01*
X203199127Y-83679401D01*
X203199126Y-83679400D01*
X203199123Y-83679398D01*
X202983385Y-83554842D01*
X202983377Y-83554838D01*
X202983373Y-83554836D01*
X202753207Y-83459498D01*
X202512565Y-83395018D01*
X202512558Y-83395016D01*
X202265567Y-83362500D01*
X202265565Y-83362500D01*
X202016435Y-83362500D01*
X202016432Y-83362500D01*
X201769441Y-83395016D01*
X201566026Y-83449521D01*
X201528793Y-83459498D01*
X201411533Y-83508069D01*
X201298625Y-83554837D01*
X201298614Y-83554842D01*
X201082876Y-83679398D01*
X200885224Y-83831062D01*
X200885213Y-83831071D01*
X200709071Y-84007213D01*
X200709062Y-84007224D01*
X200557398Y-84204876D01*
X200432842Y-84420614D01*
X200432837Y-84420625D01*
X200432836Y-84420627D01*
X200383426Y-84539914D01*
X200337498Y-84650793D01*
X200337497Y-84650797D01*
X200273016Y-84891441D01*
X200240500Y-85138432D01*
X181667853Y-85138432D01*
X181248519Y-84719085D01*
X181167857Y-84638420D01*
X181167840Y-84638400D01*
X181094675Y-84565235D01*
X181094671Y-84565232D01*
X181094668Y-84565229D01*
X181041649Y-84534619D01*
X181041646Y-84534616D01*
X181013835Y-84518559D01*
X180966890Y-84505980D01*
X180951393Y-84501827D01*
X180927321Y-84495377D01*
X180924530Y-84494539D01*
X180923674Y-84494400D01*
X180923671Y-84494400D01*
X180877006Y-84494400D01*
X180876998Y-84494399D01*
X180830334Y-84494399D01*
X180830333Y-84494399D01*
X180822618Y-84494399D01*
X180822602Y-84494400D01*
X171010069Y-84494400D01*
X171010024Y-84494397D01*
X171001654Y-84494397D01*
X171001653Y-84494397D01*
X170945653Y-84494399D01*
X170945646Y-84494400D01*
X170908317Y-84494400D01*
X170908311Y-84494401D01*
X170857970Y-84507893D01*
X170857967Y-84507894D01*
X170818158Y-84518561D01*
X170781181Y-84539912D01*
X170781178Y-84539914D01*
X170737332Y-84565228D01*
X170737322Y-84565235D01*
X170708558Y-84594002D01*
X170666949Y-84635611D01*
X170666916Y-84635648D01*
X165067577Y-90235570D01*
X165005267Y-90269598D01*
X164934451Y-90264537D01*
X164884150Y-90229347D01*
X164884104Y-90229394D01*
X164883839Y-90229129D01*
X164882664Y-90228307D01*
X164880598Y-90225888D01*
X164752108Y-90097398D01*
X164605093Y-89990585D01*
X164605092Y-89990584D01*
X164605090Y-89990583D01*
X164443174Y-89908083D01*
X164443171Y-89908082D01*
X164443169Y-89908081D01*
X164270351Y-89851929D01*
X164270347Y-89851928D01*
X164270346Y-89851928D01*
X164090861Y-89823500D01*
X163909139Y-89823500D01*
X163729654Y-89851928D01*
X163729648Y-89851929D01*
X163556830Y-89908081D01*
X163556824Y-89908084D01*
X163394906Y-89990585D01*
X163247891Y-90097398D01*
X163119398Y-90225891D01*
X163012585Y-90372906D01*
X162930084Y-90534824D01*
X162930081Y-90534830D01*
X162873929Y-90707647D01*
X162864948Y-90764353D01*
X162834535Y-90828506D01*
X162774266Y-90866032D01*
X162703277Y-90865018D01*
X162644105Y-90825784D01*
X162615538Y-90760789D01*
X162614499Y-90744641D01*
X162614499Y-90052936D01*
X162614498Y-90052926D01*
X162599734Y-89978699D01*
X162543483Y-89894515D01*
X162459302Y-89838266D01*
X162385067Y-89823500D01*
X160534936Y-89823500D01*
X160534926Y-89823501D01*
X160460699Y-89838265D01*
X160376515Y-89894516D01*
X160320266Y-89978697D01*
X160305500Y-90052930D01*
X160305500Y-91903063D01*
X160305501Y-91903073D01*
X160320265Y-91977300D01*
X160376516Y-92061484D01*
X160460697Y-92117733D01*
X160460699Y-92117734D01*
X160534933Y-92132500D01*
X160979500Y-92132499D01*
X161047621Y-92152501D01*
X161094114Y-92206156D01*
X161105500Y-92258499D01*
X161105500Y-101322674D01*
X161129659Y-101412833D01*
X161176326Y-101493664D01*
X161176334Y-101493674D01*
X162391595Y-102708934D01*
X162425620Y-102771246D01*
X162428500Y-102798029D01*
X162428500Y-102872001D01*
X162429036Y-102874001D01*
X162466289Y-103013033D01*
X162539286Y-103139467D01*
X162539294Y-103139477D01*
X162642522Y-103242705D01*
X162642527Y-103242709D01*
X162642529Y-103242711D01*
X162642530Y-103242712D01*
X162642532Y-103242713D01*
X162768966Y-103315710D01*
X162768968Y-103315710D01*
X162768971Y-103315712D01*
X162909999Y-103353500D01*
X162910001Y-103353500D01*
X163056000Y-103353500D01*
X163056001Y-103353500D01*
X163113889Y-103337989D01*
X163184864Y-103339678D01*
X163243660Y-103379471D01*
X163271609Y-103444735D01*
X163272500Y-103459695D01*
X163272500Y-105166971D01*
X163252498Y-105235092D01*
X163235595Y-105256066D01*
X161984332Y-106507329D01*
X161951331Y-106540330D01*
X161918330Y-106573330D01*
X161918326Y-106573335D01*
X161871659Y-106654166D01*
X161847500Y-106744325D01*
X161847500Y-112779415D01*
X161827498Y-112847536D01*
X161773842Y-112894029D01*
X161703568Y-112904133D01*
X161647439Y-112881351D01*
X161605093Y-112850585D01*
X161605092Y-112850584D01*
X161605090Y-112850583D01*
X161443174Y-112768083D01*
X161443171Y-112768082D01*
X161443169Y-112768081D01*
X161270351Y-112711929D01*
X161270347Y-112711928D01*
X161270346Y-112711928D01*
X161090861Y-112683500D01*
X160909139Y-112683500D01*
X160731100Y-112711699D01*
X160729648Y-112711929D01*
X160556830Y-112768081D01*
X160556824Y-112768084D01*
X160394906Y-112850585D01*
X160247891Y-112957398D01*
X160119398Y-113085891D01*
X160012585Y-113232906D01*
X159930084Y-113394824D01*
X159930081Y-113394830D01*
X159873929Y-113567647D01*
X159873928Y-113567654D01*
X159866625Y-113613766D01*
X159864948Y-113624353D01*
X159834535Y-113688506D01*
X159774266Y-113726032D01*
X159703277Y-113725018D01*
X159644105Y-113685784D01*
X159615538Y-113620789D01*
X159614499Y-113604641D01*
X159614499Y-112912936D01*
X159614498Y-112912926D01*
X159599734Y-112838699D01*
X159564472Y-112785927D01*
X159543484Y-112754516D01*
X159497831Y-112724011D01*
X159459302Y-112698266D01*
X159385069Y-112683500D01*
X159385067Y-112683500D01*
X158940500Y-112683500D01*
X158872379Y-112663498D01*
X158825886Y-112609842D01*
X158814500Y-112557500D01*
X158814500Y-107838029D01*
X158834502Y-107769908D01*
X158851405Y-107748934D01*
X159955934Y-106644405D01*
X160018246Y-106610379D01*
X160045029Y-106607500D01*
X160118999Y-106607500D01*
X160119001Y-106607500D01*
X160260029Y-106569712D01*
X160260032Y-106569710D01*
X160260033Y-106569710D01*
X160368080Y-106507329D01*
X160386471Y-106496711D01*
X160489711Y-106393471D01*
X160562712Y-106267029D01*
X160600500Y-106126001D01*
X160600500Y-105979999D01*
X160562712Y-105838971D01*
X160562710Y-105838968D01*
X160562710Y-105838966D01*
X160489713Y-105712532D01*
X160489705Y-105712522D01*
X160386477Y-105609294D01*
X160386467Y-105609286D01*
X160260033Y-105536289D01*
X160243372Y-105531824D01*
X160119001Y-105498500D01*
X159972999Y-105498500D01*
X159886686Y-105521627D01*
X159831966Y-105536289D01*
X159705532Y-105609286D01*
X159705522Y-105609294D01*
X159602294Y-105712522D01*
X159602286Y-105712532D01*
X159529289Y-105838966D01*
X159491500Y-105980000D01*
X159491500Y-106053971D01*
X159471498Y-106122092D01*
X159454595Y-106143066D01*
X158242332Y-107355329D01*
X158209331Y-107388330D01*
X158176330Y-107421330D01*
X158176326Y-107421335D01*
X158129659Y-107502166D01*
X158105500Y-107592325D01*
X158105500Y-112557500D01*
X158085498Y-112625621D01*
X158031842Y-112672114D01*
X157979500Y-112683500D01*
X157534936Y-112683500D01*
X157534926Y-112683501D01*
X157460699Y-112698265D01*
X157376515Y-112754516D01*
X157320266Y-112838697D01*
X157305500Y-112912930D01*
X140719614Y-112912930D01*
X140678026Y-112831309D01*
X140567577Y-112679289D01*
X140434710Y-112546422D01*
X140282690Y-112435973D01*
X140115261Y-112350664D01*
X140115258Y-112350663D01*
X139936551Y-112292596D01*
X139784000Y-112268434D01*
X139784000Y-112965108D01*
X139723880Y-112949000D01*
X139590120Y-112949000D01*
X139530000Y-112965108D01*
X139530000Y-112268434D01*
X139377448Y-112292596D01*
X139198741Y-112350663D01*
X139198738Y-112350664D01*
X139031309Y-112435973D01*
X138879289Y-112546422D01*
X138746422Y-112679289D01*
X138635973Y-112831309D01*
X138550664Y-112998738D01*
X138550663Y-112998741D01*
X138507096Y-113132825D01*
X138467022Y-113191430D01*
X138401625Y-113219067D01*
X138331669Y-113206960D01*
X138279363Y-113158954D01*
X138267430Y-113132824D01*
X138246839Y-113069453D01*
X138223801Y-112998548D01*
X138138457Y-112831050D01*
X138091569Y-112766515D01*
X138027959Y-112678963D01*
X137895036Y-112546040D01*
X137742953Y-112435545D01*
X137742952Y-112435544D01*
X137742950Y-112435543D01*
X137575452Y-112350199D01*
X137575449Y-112350198D01*
X137575447Y-112350197D01*
X137396671Y-112292109D01*
X137396667Y-112292108D01*
X137396666Y-112292108D01*
X137210993Y-112262700D01*
X137023007Y-112262700D01*
X136837334Y-112292108D01*
X136837328Y-112292109D01*
X136658552Y-112350197D01*
X136658546Y-112350200D01*
X136491046Y-112435545D01*
X136338963Y-112546040D01*
X136206040Y-112678963D01*
X136095545Y-112831046D01*
X136010200Y-112998546D01*
X136010199Y-112998548D01*
X135966833Y-113132015D01*
X135926759Y-113190620D01*
X135861362Y-113218257D01*
X135791406Y-113206150D01*
X135739100Y-113158144D01*
X135727167Y-113132015D01*
X135718685Y-113105910D01*
X135683801Y-112998548D01*
X135598457Y-112831050D01*
X135551569Y-112766515D01*
X135487959Y-112678963D01*
X135355036Y-112546040D01*
X135202953Y-112435545D01*
X135202952Y-112435544D01*
X135202950Y-112435543D01*
X135035452Y-112350199D01*
X135035449Y-112350198D01*
X135035447Y-112350197D01*
X134856671Y-112292109D01*
X134856667Y-112292108D01*
X134856666Y-112292108D01*
X134670993Y-112262700D01*
X134483007Y-112262700D01*
X134297334Y-112292108D01*
X134297328Y-112292109D01*
X134118552Y-112350197D01*
X134118546Y-112350200D01*
X133951046Y-112435545D01*
X133798963Y-112546040D01*
X133666040Y-112678963D01*
X133555545Y-112831046D01*
X133470200Y-112998546D01*
X133470199Y-112998548D01*
X133426833Y-113132015D01*
X133386759Y-113190620D01*
X133321362Y-113218257D01*
X133251406Y-113206150D01*
X133199100Y-113158144D01*
X133187167Y-113132015D01*
X133178685Y-113105910D01*
X133143801Y-112998548D01*
X133058457Y-112831050D01*
X133011569Y-112766515D01*
X132947959Y-112678963D01*
X132815036Y-112546040D01*
X132662953Y-112435545D01*
X132662952Y-112435544D01*
X132662950Y-112435543D01*
X132495452Y-112350199D01*
X132495449Y-112350198D01*
X132495447Y-112350197D01*
X132316671Y-112292109D01*
X132316667Y-112292108D01*
X132316666Y-112292108D01*
X132130993Y-112262700D01*
X131943007Y-112262700D01*
X131757334Y-112292108D01*
X131757328Y-112292109D01*
X131578552Y-112350197D01*
X131578546Y-112350200D01*
X131411046Y-112435545D01*
X131258963Y-112546040D01*
X131126040Y-112678963D01*
X131015545Y-112831046D01*
X130930200Y-112998546D01*
X130930199Y-112998548D01*
X130886833Y-113132015D01*
X130846759Y-113190620D01*
X130781362Y-113218257D01*
X130711406Y-113206150D01*
X130659100Y-113158144D01*
X130647167Y-113132015D01*
X130638685Y-113105910D01*
X130603801Y-112998548D01*
X130518457Y-112831050D01*
X130471569Y-112766515D01*
X130407959Y-112678963D01*
X130275036Y-112546040D01*
X130122953Y-112435545D01*
X130122952Y-112435544D01*
X130122950Y-112435543D01*
X129955452Y-112350199D01*
X129955449Y-112350198D01*
X129955447Y-112350197D01*
X129776671Y-112292109D01*
X129776667Y-112292108D01*
X129776666Y-112292108D01*
X129590993Y-112262700D01*
X129403007Y-112262700D01*
X129217334Y-112292108D01*
X129217328Y-112292109D01*
X129038552Y-112350197D01*
X129038546Y-112350200D01*
X128871046Y-112435545D01*
X128718963Y-112546040D01*
X128586040Y-112678963D01*
X128475545Y-112831046D01*
X128390200Y-112998546D01*
X128390199Y-112998548D01*
X128346833Y-113132015D01*
X128306759Y-113190620D01*
X128241362Y-113218257D01*
X128171406Y-113206150D01*
X128119100Y-113158144D01*
X128107167Y-113132015D01*
X128098685Y-113105910D01*
X128063801Y-112998548D01*
X127978457Y-112831050D01*
X127931569Y-112766515D01*
X127867959Y-112678963D01*
X127735036Y-112546040D01*
X127582953Y-112435545D01*
X127582952Y-112435544D01*
X127582950Y-112435543D01*
X127415452Y-112350199D01*
X127415449Y-112350198D01*
X127415447Y-112350197D01*
X127236671Y-112292109D01*
X127236667Y-112292108D01*
X127236666Y-112292108D01*
X127050993Y-112262700D01*
X126863007Y-112262700D01*
X126677334Y-112292108D01*
X126677328Y-112292109D01*
X126498552Y-112350197D01*
X126498546Y-112350200D01*
X126331046Y-112435545D01*
X126178963Y-112546040D01*
X126046040Y-112678963D01*
X125935545Y-112831046D01*
X125850200Y-112998546D01*
X125850199Y-112998548D01*
X125806833Y-113132015D01*
X125766759Y-113190620D01*
X125701362Y-113218257D01*
X125631406Y-113206150D01*
X125579100Y-113158144D01*
X125567167Y-113132015D01*
X125558685Y-113105910D01*
X125523801Y-112998548D01*
X125438457Y-112831050D01*
X125391569Y-112766515D01*
X125327959Y-112678963D01*
X125195036Y-112546040D01*
X125042953Y-112435545D01*
X125042952Y-112435544D01*
X125042950Y-112435543D01*
X124875452Y-112350199D01*
X124875449Y-112350198D01*
X124875447Y-112350197D01*
X124696671Y-112292109D01*
X124696667Y-112292108D01*
X124696666Y-112292108D01*
X124510993Y-112262700D01*
X124323007Y-112262700D01*
X124137334Y-112292108D01*
X124137328Y-112292109D01*
X123958552Y-112350197D01*
X123958546Y-112350200D01*
X123791046Y-112435545D01*
X123638963Y-112546040D01*
X123506040Y-112678963D01*
X123395545Y-112831046D01*
X123310200Y-112998546D01*
X123310199Y-112998548D01*
X123266833Y-113132015D01*
X123226759Y-113190620D01*
X123161362Y-113218257D01*
X123091406Y-113206150D01*
X123039100Y-113158144D01*
X123027167Y-113132015D01*
X123018685Y-113105910D01*
X122983801Y-112998548D01*
X122898457Y-112831050D01*
X122851569Y-112766515D01*
X122787959Y-112678963D01*
X122655036Y-112546040D01*
X122502953Y-112435545D01*
X122502952Y-112435544D01*
X122502950Y-112435543D01*
X122335452Y-112350199D01*
X122335449Y-112350198D01*
X122335447Y-112350197D01*
X122156671Y-112292109D01*
X122156667Y-112292108D01*
X122156666Y-112292108D01*
X121970993Y-112262700D01*
X121783007Y-112262700D01*
X121597334Y-112292108D01*
X121597328Y-112292109D01*
X121418552Y-112350197D01*
X121418546Y-112350200D01*
X121251046Y-112435545D01*
X121098963Y-112546040D01*
X120966040Y-112678963D01*
X120855545Y-112831046D01*
X120770200Y-112998546D01*
X120770199Y-112998548D01*
X120726833Y-113132015D01*
X120686759Y-113190620D01*
X120621362Y-113218257D01*
X120551406Y-113206150D01*
X120499100Y-113158144D01*
X120487167Y-113132015D01*
X120478685Y-113105910D01*
X120443801Y-112998548D01*
X120358457Y-112831050D01*
X120311569Y-112766515D01*
X120247959Y-112678963D01*
X120115036Y-112546040D01*
X119962953Y-112435545D01*
X119962952Y-112435544D01*
X119962950Y-112435543D01*
X119795452Y-112350199D01*
X119795449Y-112350198D01*
X119795447Y-112350197D01*
X119616671Y-112292109D01*
X119616667Y-112292108D01*
X119616666Y-112292108D01*
X119430993Y-112262700D01*
X119243007Y-112262700D01*
X119057334Y-112292108D01*
X119057328Y-112292109D01*
X118878552Y-112350197D01*
X118878546Y-112350200D01*
X118711046Y-112435545D01*
X118558963Y-112546040D01*
X118426040Y-112678963D01*
X118315545Y-112831046D01*
X118315543Y-112831050D01*
X118244267Y-112970939D01*
X118229066Y-113000772D01*
X118180318Y-113052387D01*
X118111403Y-113069453D01*
X118044201Y-113046552D01*
X118000049Y-112990955D01*
X117990799Y-112943569D01*
X117990799Y-112492186D01*
X117990798Y-112492177D01*
X117976062Y-112418094D01*
X117976062Y-112418092D01*
X117919924Y-112334075D01*
X117835906Y-112277937D01*
X117835905Y-112277936D01*
X117761822Y-112263200D01*
X116924000Y-112263200D01*
X116924000Y-112965108D01*
X116863880Y-112949000D01*
X116730120Y-112949000D01*
X116670000Y-112965108D01*
X116670000Y-112263200D01*
X115832186Y-112263200D01*
X115832176Y-112263201D01*
X115758094Y-112277937D01*
X115758092Y-112277937D01*
X115674075Y-112334075D01*
X115617937Y-112418093D01*
X115617936Y-112418094D01*
X115603200Y-112492177D01*
X97485500Y-112492177D01*
X97485500Y-90470000D01*
X115608434Y-90470000D01*
X116305109Y-90470000D01*
X116289000Y-90530120D01*
X116289000Y-90663880D01*
X116305109Y-90724000D01*
X115608434Y-90724000D01*
X115632596Y-90876551D01*
X115690663Y-91055258D01*
X115690664Y-91055261D01*
X115775973Y-91222690D01*
X115886422Y-91374710D01*
X116019289Y-91507577D01*
X116171309Y-91618026D01*
X116338738Y-91703335D01*
X116338741Y-91703336D01*
X116517448Y-91761403D01*
X116670000Y-91785564D01*
X116670000Y-91088891D01*
X116730120Y-91105000D01*
X116863880Y-91105000D01*
X116924000Y-91088891D01*
X116924000Y-91785564D01*
X117076551Y-91761403D01*
X117255258Y-91703336D01*
X117255261Y-91703335D01*
X117422690Y-91618026D01*
X117574710Y-91507577D01*
X117707577Y-91374710D01*
X117818026Y-91222690D01*
X117903335Y-91055261D01*
X117903338Y-91055255D01*
X117946903Y-90921175D01*
X117986976Y-90862569D01*
X118052373Y-90834932D01*
X118122329Y-90847039D01*
X118174636Y-90895045D01*
X118186569Y-90921174D01*
X118205599Y-90979743D01*
X118230199Y-91055452D01*
X118308717Y-91209553D01*
X118315545Y-91222953D01*
X118426040Y-91375036D01*
X118558963Y-91507959D01*
X118558966Y-91507961D01*
X118711050Y-91618457D01*
X118878548Y-91703801D01*
X119057334Y-91761892D01*
X119243007Y-91791300D01*
X119243010Y-91791300D01*
X119430990Y-91791300D01*
X119430993Y-91791300D01*
X119616666Y-91761892D01*
X119795452Y-91703801D01*
X119962950Y-91618457D01*
X120115034Y-91507961D01*
X120247961Y-91375034D01*
X120358457Y-91222950D01*
X120443801Y-91055452D01*
X120487167Y-90921985D01*
X120527241Y-90863379D01*
X120592637Y-90835742D01*
X120662594Y-90847849D01*
X120714900Y-90895855D01*
X120726833Y-90921985D01*
X120765626Y-91041380D01*
X120770199Y-91055452D01*
X120848717Y-91209553D01*
X120855545Y-91222953D01*
X120966040Y-91375036D01*
X121098963Y-91507959D01*
X121098966Y-91507961D01*
X121251050Y-91618457D01*
X121418548Y-91703801D01*
X121597334Y-91761892D01*
X121783007Y-91791300D01*
X121783010Y-91791300D01*
X121970990Y-91791300D01*
X121970993Y-91791300D01*
X122156666Y-91761892D01*
X122335452Y-91703801D01*
X122502950Y-91618457D01*
X122655034Y-91507961D01*
X122787961Y-91375034D01*
X122898457Y-91222950D01*
X122983801Y-91055452D01*
X123027167Y-90921985D01*
X123067241Y-90863379D01*
X123132637Y-90835742D01*
X123202594Y-90847849D01*
X123254900Y-90895855D01*
X123266833Y-90921985D01*
X123305626Y-91041380D01*
X123310199Y-91055452D01*
X123388717Y-91209553D01*
X123395545Y-91222953D01*
X123506040Y-91375036D01*
X123638963Y-91507959D01*
X123638966Y-91507961D01*
X123791050Y-91618457D01*
X123958548Y-91703801D01*
X124137334Y-91761892D01*
X124323007Y-91791300D01*
X124323010Y-91791300D01*
X124510990Y-91791300D01*
X124510993Y-91791300D01*
X124696666Y-91761892D01*
X124875452Y-91703801D01*
X125042950Y-91618457D01*
X125195034Y-91507961D01*
X125327961Y-91375034D01*
X125438457Y-91222950D01*
X125523801Y-91055452D01*
X125567167Y-90921985D01*
X125607241Y-90863379D01*
X125672637Y-90835742D01*
X125742594Y-90847849D01*
X125794900Y-90895855D01*
X125806833Y-90921985D01*
X125845626Y-91041380D01*
X125850199Y-91055452D01*
X125928717Y-91209553D01*
X125935545Y-91222953D01*
X126046040Y-91375036D01*
X126178963Y-91507959D01*
X126178966Y-91507961D01*
X126331050Y-91618457D01*
X126498548Y-91703801D01*
X126677334Y-91761892D01*
X126863007Y-91791300D01*
X126863010Y-91791300D01*
X127050990Y-91791300D01*
X127050993Y-91791300D01*
X127236666Y-91761892D01*
X127415452Y-91703801D01*
X127582950Y-91618457D01*
X127735034Y-91507961D01*
X127867961Y-91375034D01*
X127978457Y-91222950D01*
X128063801Y-91055452D01*
X128107167Y-90921985D01*
X128147241Y-90863379D01*
X128212637Y-90835742D01*
X128282594Y-90847849D01*
X128334900Y-90895855D01*
X128346833Y-90921985D01*
X128385626Y-91041380D01*
X128390199Y-91055452D01*
X128468717Y-91209553D01*
X128475545Y-91222953D01*
X128586040Y-91375036D01*
X128718963Y-91507959D01*
X128718966Y-91507961D01*
X128871050Y-91618457D01*
X129038548Y-91703801D01*
X129217334Y-91761892D01*
X129403007Y-91791300D01*
X129403010Y-91791300D01*
X129590990Y-91791300D01*
X129590993Y-91791300D01*
X129776666Y-91761892D01*
X129955452Y-91703801D01*
X130122950Y-91618457D01*
X130275034Y-91507961D01*
X130407961Y-91375034D01*
X130518457Y-91222950D01*
X130603801Y-91055452D01*
X130647167Y-90921985D01*
X130687241Y-90863379D01*
X130752637Y-90835742D01*
X130822594Y-90847849D01*
X130874900Y-90895855D01*
X130886833Y-90921985D01*
X130925626Y-91041380D01*
X130930199Y-91055452D01*
X131008717Y-91209553D01*
X131015545Y-91222953D01*
X131126040Y-91375036D01*
X131258963Y-91507959D01*
X131258966Y-91507961D01*
X131411050Y-91618457D01*
X131578548Y-91703801D01*
X131757334Y-91761892D01*
X131943007Y-91791300D01*
X131943010Y-91791300D01*
X132130990Y-91791300D01*
X132130993Y-91791300D01*
X132316666Y-91761892D01*
X132495452Y-91703801D01*
X132662950Y-91618457D01*
X132815034Y-91507961D01*
X132929435Y-91393559D01*
X132991745Y-91359536D01*
X133062561Y-91364600D01*
X133107623Y-91393559D01*
X139503658Y-97789398D01*
X139503659Y-97789399D01*
X139514461Y-97800200D01*
X139556332Y-97842071D01*
X139556334Y-97842072D01*
X139556336Y-97842074D01*
X139582246Y-97857032D01*
X139637168Y-97888741D01*
X139637172Y-97888742D01*
X139637174Y-97888743D01*
X139674973Y-97898871D01*
X139727329Y-97912900D01*
X139727330Y-97912900D01*
X139727334Y-97912901D01*
X139820677Y-97912900D01*
X147813128Y-97912900D01*
X147881249Y-97932902D01*
X147902218Y-97949800D01*
X147954529Y-98002111D01*
X147954530Y-98002112D01*
X147954532Y-98002113D01*
X148080966Y-98075110D01*
X148080968Y-98075110D01*
X148080971Y-98075112D01*
X148221999Y-98112900D01*
X148222001Y-98112900D01*
X148367999Y-98112900D01*
X148368001Y-98112900D01*
X148509029Y-98075112D01*
X148509032Y-98075110D01*
X148509033Y-98075110D01*
X148615680Y-98013537D01*
X148635471Y-98002111D01*
X148738711Y-97898871D01*
X148775211Y-97835650D01*
X148811710Y-97772433D01*
X148811710Y-97772432D01*
X148811712Y-97772429D01*
X148849500Y-97631401D01*
X148849500Y-97485399D01*
X148811712Y-97344371D01*
X148811710Y-97344368D01*
X148811710Y-97344366D01*
X148738713Y-97217932D01*
X148738705Y-97217922D01*
X148635477Y-97114694D01*
X148635467Y-97114686D01*
X148509033Y-97041689D01*
X148492372Y-97037224D01*
X148368001Y-97003900D01*
X148221999Y-97003900D01*
X148135686Y-97027027D01*
X148080966Y-97041689D01*
X147954532Y-97114686D01*
X147954527Y-97114690D01*
X147931320Y-97137898D01*
X147902221Y-97166996D01*
X147839912Y-97201020D01*
X147813128Y-97203900D01*
X139973025Y-97203900D01*
X139904904Y-97183898D01*
X139883931Y-97166997D01*
X135357483Y-92640688D01*
X134705210Y-91988435D01*
X134671185Y-91926124D01*
X134676249Y-91855308D01*
X134718794Y-91798472D01*
X134774591Y-91774891D01*
X134856666Y-91761892D01*
X135035452Y-91703801D01*
X135202950Y-91618457D01*
X135355034Y-91507961D01*
X135487961Y-91375034D01*
X135598457Y-91222950D01*
X135683801Y-91055452D01*
X135727167Y-90921985D01*
X135767241Y-90863379D01*
X135832637Y-90835742D01*
X135902594Y-90847849D01*
X135954900Y-90895855D01*
X135966833Y-90921985D01*
X136005626Y-91041380D01*
X136010199Y-91055452D01*
X136088717Y-91209553D01*
X136095545Y-91222953D01*
X136206040Y-91375036D01*
X136338963Y-91507959D01*
X136338966Y-91507961D01*
X136491050Y-91618457D01*
X136658548Y-91703801D01*
X136837334Y-91761892D01*
X137023007Y-91791300D01*
X137023010Y-91791300D01*
X137210990Y-91791300D01*
X137210993Y-91791300D01*
X137396666Y-91761892D01*
X137575452Y-91703801D01*
X137742950Y-91618457D01*
X137895034Y-91507961D01*
X138027961Y-91375034D01*
X138138457Y-91222950D01*
X138223801Y-91055452D01*
X138267167Y-90921985D01*
X138307241Y-90863379D01*
X138372637Y-90835742D01*
X138442594Y-90847849D01*
X138494900Y-90895855D01*
X138506833Y-90921985D01*
X138545626Y-91041380D01*
X138550199Y-91055452D01*
X138628717Y-91209553D01*
X138635545Y-91222953D01*
X138746040Y-91375036D01*
X138878963Y-91507959D01*
X138878966Y-91507961D01*
X139031050Y-91618457D01*
X139198548Y-91703801D01*
X139377334Y-91761892D01*
X139563007Y-91791300D01*
X139563010Y-91791300D01*
X139750990Y-91791300D01*
X139750993Y-91791300D01*
X139936666Y-91761892D01*
X140115452Y-91703801D01*
X140282950Y-91618457D01*
X140435034Y-91507961D01*
X140567961Y-91375034D01*
X140678457Y-91222950D01*
X140763801Y-91055452D01*
X140821892Y-90876666D01*
X140851300Y-90690993D01*
X140851300Y-90503007D01*
X140821892Y-90317334D01*
X140763801Y-90138548D01*
X140678457Y-89971050D01*
X140606287Y-89871717D01*
X140567959Y-89818963D01*
X140435036Y-89686040D01*
X140282953Y-89575545D01*
X140282952Y-89575544D01*
X140282950Y-89575543D01*
X140115452Y-89490199D01*
X140115449Y-89490198D01*
X140115447Y-89490197D01*
X139936671Y-89432109D01*
X139936667Y-89432108D01*
X139936666Y-89432108D01*
X139750993Y-89402700D01*
X139563007Y-89402700D01*
X139377334Y-89432108D01*
X139377328Y-89432109D01*
X139198552Y-89490197D01*
X139198546Y-89490200D01*
X139031046Y-89575545D01*
X138878963Y-89686040D01*
X138746040Y-89818963D01*
X138635545Y-89971046D01*
X138550200Y-90138546D01*
X138550199Y-90138548D01*
X138506833Y-90272015D01*
X138466759Y-90330620D01*
X138401362Y-90358257D01*
X138331406Y-90346150D01*
X138279100Y-90298144D01*
X138267167Y-90272015D01*
X138255325Y-90235570D01*
X138223801Y-90138548D01*
X138138457Y-89971050D01*
X138066287Y-89871717D01*
X138027959Y-89818963D01*
X137895036Y-89686040D01*
X137742953Y-89575545D01*
X137742952Y-89575544D01*
X137742950Y-89575543D01*
X137575452Y-89490199D01*
X137575449Y-89490198D01*
X137575447Y-89490197D01*
X137396671Y-89432109D01*
X137396667Y-89432108D01*
X137396666Y-89432108D01*
X137210993Y-89402700D01*
X137023007Y-89402700D01*
X136837334Y-89432108D01*
X136837328Y-89432109D01*
X136658552Y-89490197D01*
X136658546Y-89490200D01*
X136491046Y-89575545D01*
X136338963Y-89686040D01*
X136206040Y-89818963D01*
X136095545Y-89971046D01*
X136010200Y-90138546D01*
X136010199Y-90138548D01*
X135966833Y-90272015D01*
X135926759Y-90330620D01*
X135861362Y-90358257D01*
X135791406Y-90346150D01*
X135739100Y-90298144D01*
X135727167Y-90272015D01*
X135715325Y-90235570D01*
X135683801Y-90138548D01*
X135598457Y-89971050D01*
X135526287Y-89871717D01*
X135487959Y-89818963D01*
X135355036Y-89686040D01*
X135202953Y-89575545D01*
X135202952Y-89575544D01*
X135202950Y-89575543D01*
X135035452Y-89490199D01*
X135035449Y-89490198D01*
X135035447Y-89490197D01*
X134856671Y-89432109D01*
X134856667Y-89432108D01*
X134856666Y-89432108D01*
X134670993Y-89402700D01*
X134483007Y-89402700D01*
X134297334Y-89432108D01*
X134297328Y-89432109D01*
X134118552Y-89490197D01*
X134118546Y-89490200D01*
X133951046Y-89575545D01*
X133798963Y-89686040D01*
X133666040Y-89818963D01*
X133555545Y-89971046D01*
X133470198Y-90138550D01*
X133464220Y-90156948D01*
X133424145Y-90215552D01*
X133358747Y-90243187D01*
X133327947Y-90242931D01*
X133324672Y-90242500D01*
X133324671Y-90242500D01*
X133269121Y-90242500D01*
X133201000Y-90222498D01*
X133154507Y-90168842D01*
X133149288Y-90155436D01*
X133143801Y-90138548D01*
X133058457Y-89971050D01*
X132986287Y-89871717D01*
X132947959Y-89818963D01*
X132815036Y-89686040D01*
X132662953Y-89575545D01*
X132662952Y-89575544D01*
X132662950Y-89575543D01*
X132495452Y-89490199D01*
X132495449Y-89490198D01*
X132495447Y-89490197D01*
X132316671Y-89432109D01*
X132316667Y-89432108D01*
X132316666Y-89432108D01*
X132130993Y-89402700D01*
X131943007Y-89402700D01*
X131757334Y-89432108D01*
X131757328Y-89432109D01*
X131578552Y-89490197D01*
X131578546Y-89490200D01*
X131411046Y-89575545D01*
X131258963Y-89686040D01*
X131126040Y-89818963D01*
X131015545Y-89971046D01*
X130930200Y-90138546D01*
X130930199Y-90138548D01*
X130886833Y-90272015D01*
X130846759Y-90330620D01*
X130781362Y-90358257D01*
X130711406Y-90346150D01*
X130659100Y-90298144D01*
X130647167Y-90272015D01*
X130635325Y-90235570D01*
X130603801Y-90138548D01*
X130518457Y-89971050D01*
X130446287Y-89871717D01*
X130407959Y-89818963D01*
X130275036Y-89686040D01*
X130122953Y-89575545D01*
X130122952Y-89575544D01*
X130122950Y-89575543D01*
X129955452Y-89490199D01*
X129955449Y-89490198D01*
X129955447Y-89490197D01*
X129776671Y-89432109D01*
X129776667Y-89432108D01*
X129776666Y-89432108D01*
X129590993Y-89402700D01*
X129403007Y-89402700D01*
X129217334Y-89432108D01*
X129217328Y-89432109D01*
X129038552Y-89490197D01*
X129038546Y-89490200D01*
X128871046Y-89575545D01*
X128718963Y-89686040D01*
X128586040Y-89818963D01*
X128475545Y-89971046D01*
X128390200Y-90138546D01*
X128390199Y-90138548D01*
X128346833Y-90272015D01*
X128306759Y-90330620D01*
X128241362Y-90358257D01*
X128171406Y-90346150D01*
X128119100Y-90298144D01*
X128107167Y-90272015D01*
X128095325Y-90235570D01*
X128063801Y-90138548D01*
X127978457Y-89971050D01*
X127906287Y-89871717D01*
X127867959Y-89818963D01*
X127735036Y-89686040D01*
X127582953Y-89575545D01*
X127582952Y-89575544D01*
X127582950Y-89575543D01*
X127415452Y-89490199D01*
X127415449Y-89490198D01*
X127415447Y-89490197D01*
X127236671Y-89432109D01*
X127236667Y-89432108D01*
X127236666Y-89432108D01*
X127050993Y-89402700D01*
X126863007Y-89402700D01*
X126677334Y-89432108D01*
X126677328Y-89432109D01*
X126498552Y-89490197D01*
X126498546Y-89490200D01*
X126331046Y-89575545D01*
X126178963Y-89686040D01*
X126046040Y-89818963D01*
X125935545Y-89971046D01*
X125850200Y-90138546D01*
X125850199Y-90138548D01*
X125806833Y-90272015D01*
X125766759Y-90330620D01*
X125701362Y-90358257D01*
X125631406Y-90346150D01*
X125579100Y-90298144D01*
X125567167Y-90272015D01*
X125555325Y-90235570D01*
X125523801Y-90138548D01*
X125438457Y-89971050D01*
X125366287Y-89871717D01*
X125327959Y-89818963D01*
X125195036Y-89686040D01*
X125042953Y-89575545D01*
X125042952Y-89575544D01*
X125042950Y-89575543D01*
X124875452Y-89490199D01*
X124875449Y-89490198D01*
X124875447Y-89490197D01*
X124696671Y-89432109D01*
X124696667Y-89432108D01*
X124696666Y-89432108D01*
X124510993Y-89402700D01*
X124323007Y-89402700D01*
X124137334Y-89432108D01*
X124137328Y-89432109D01*
X123958552Y-89490197D01*
X123958546Y-89490200D01*
X123791046Y-89575545D01*
X123638963Y-89686040D01*
X123506040Y-89818963D01*
X123395545Y-89971046D01*
X123310200Y-90138546D01*
X123310199Y-90138548D01*
X123266833Y-90272015D01*
X123226759Y-90330620D01*
X123161362Y-90358257D01*
X123091406Y-90346150D01*
X123039100Y-90298144D01*
X123027167Y-90272015D01*
X123015325Y-90235570D01*
X122983801Y-90138548D01*
X122898457Y-89971050D01*
X122826287Y-89871717D01*
X122787959Y-89818963D01*
X122655036Y-89686040D01*
X122502953Y-89575545D01*
X122502952Y-89575544D01*
X122502950Y-89575543D01*
X122335452Y-89490199D01*
X122335449Y-89490198D01*
X122335447Y-89490197D01*
X122156671Y-89432109D01*
X122156667Y-89432108D01*
X122156666Y-89432108D01*
X121970993Y-89402700D01*
X121783007Y-89402700D01*
X121597334Y-89432108D01*
X121597328Y-89432109D01*
X121418552Y-89490197D01*
X121418546Y-89490200D01*
X121251046Y-89575545D01*
X121098963Y-89686040D01*
X120966040Y-89818963D01*
X120855545Y-89971046D01*
X120770200Y-90138546D01*
X120770199Y-90138548D01*
X120726833Y-90272015D01*
X120686759Y-90330620D01*
X120621362Y-90358257D01*
X120551406Y-90346150D01*
X120499100Y-90298144D01*
X120487167Y-90272015D01*
X120475325Y-90235570D01*
X120443801Y-90138548D01*
X120358457Y-89971050D01*
X120286287Y-89871717D01*
X120247959Y-89818963D01*
X120115036Y-89686040D01*
X119962953Y-89575545D01*
X119962952Y-89575544D01*
X119962950Y-89575543D01*
X119795452Y-89490199D01*
X119795449Y-89490198D01*
X119795447Y-89490197D01*
X119616671Y-89432109D01*
X119616667Y-89432108D01*
X119616666Y-89432108D01*
X119430993Y-89402700D01*
X119243007Y-89402700D01*
X119057334Y-89432108D01*
X119057328Y-89432109D01*
X118878552Y-89490197D01*
X118878546Y-89490200D01*
X118711046Y-89575545D01*
X118558963Y-89686040D01*
X118426040Y-89818963D01*
X118315545Y-89971046D01*
X118263988Y-90072233D01*
X118230199Y-90138548D01*
X118220356Y-90168842D01*
X118186569Y-90272825D01*
X118146495Y-90331431D01*
X118081098Y-90359067D01*
X118011141Y-90346960D01*
X117958835Y-90298953D01*
X117946903Y-90272824D01*
X117903338Y-90138744D01*
X117903335Y-90138738D01*
X117818026Y-89971309D01*
X117707577Y-89819289D01*
X117574710Y-89686422D01*
X117422690Y-89575973D01*
X117255261Y-89490664D01*
X117255258Y-89490663D01*
X117076551Y-89432596D01*
X116924000Y-89408434D01*
X116924000Y-90105108D01*
X116863880Y-90089000D01*
X116730120Y-90089000D01*
X116670000Y-90105108D01*
X116670000Y-89408434D01*
X116517448Y-89432596D01*
X116338741Y-89490663D01*
X116338738Y-89490664D01*
X116171309Y-89575973D01*
X116019289Y-89686422D01*
X115886422Y-89819289D01*
X115775973Y-89971309D01*
X115690664Y-90138738D01*
X115690663Y-90138741D01*
X115632596Y-90317448D01*
X115608434Y-90470000D01*
X97485500Y-90470000D01*
X97485500Y-86328847D01*
X97485620Y-86323351D01*
X97490888Y-86202702D01*
X97502382Y-85939436D01*
X97503340Y-85928488D01*
X97512565Y-85858421D01*
X97553139Y-85550220D01*
X97555048Y-85539398D01*
X97584555Y-85406300D01*
X97637630Y-85166897D01*
X97640465Y-85156316D01*
X97646104Y-85138432D01*
X99783500Y-85138432D01*
X99783500Y-85387567D01*
X99816016Y-85634558D01*
X99816018Y-85634565D01*
X99880498Y-85875207D01*
X99975836Y-86105373D01*
X99975837Y-86105374D01*
X99975842Y-86105385D01*
X100100398Y-86321123D01*
X100100400Y-86321126D01*
X100100401Y-86321127D01*
X100252062Y-86518776D01*
X100252066Y-86518780D01*
X100252071Y-86518786D01*
X100428213Y-86694928D01*
X100428218Y-86694932D01*
X100428224Y-86694938D01*
X100625873Y-86846599D01*
X100625876Y-86846601D01*
X100841614Y-86971157D01*
X100841618Y-86971158D01*
X100841627Y-86971164D01*
X101071793Y-87066502D01*
X101312435Y-87130982D01*
X101312439Y-87130982D01*
X101312441Y-87130983D01*
X101376099Y-87139363D01*
X101559435Y-87163500D01*
X101559442Y-87163500D01*
X101808558Y-87163500D01*
X101808565Y-87163500D01*
X102031790Y-87134111D01*
X102055558Y-87130983D01*
X102055558Y-87130982D01*
X102055565Y-87130982D01*
X102296207Y-87066502D01*
X102526373Y-86971164D01*
X102742127Y-86846599D01*
X102939776Y-86694938D01*
X103115938Y-86518776D01*
X103267599Y-86321127D01*
X103392164Y-86105373D01*
X103487502Y-85875207D01*
X103551982Y-85634565D01*
X103584500Y-85387565D01*
X103584500Y-85138435D01*
X103551982Y-84891435D01*
X103487502Y-84650793D01*
X103392164Y-84420627D01*
X103392158Y-84420618D01*
X103392157Y-84420614D01*
X103267601Y-84204876D01*
X103267599Y-84204873D01*
X103115938Y-84007224D01*
X103115932Y-84007218D01*
X103115928Y-84007213D01*
X102939786Y-83831071D01*
X102939780Y-83831066D01*
X102939776Y-83831062D01*
X102742127Y-83679401D01*
X102742126Y-83679400D01*
X102742123Y-83679398D01*
X102526385Y-83554842D01*
X102526377Y-83554838D01*
X102526373Y-83554836D01*
X102296207Y-83459498D01*
X102055565Y-83395018D01*
X102055558Y-83395016D01*
X101808567Y-83362500D01*
X101808565Y-83362500D01*
X101559435Y-83362500D01*
X101559432Y-83362500D01*
X101312441Y-83395016D01*
X101109026Y-83449521D01*
X101071793Y-83459498D01*
X100954533Y-83508069D01*
X100841625Y-83554837D01*
X100841614Y-83554842D01*
X100625876Y-83679398D01*
X100428224Y-83831062D01*
X100428213Y-83831071D01*
X100252071Y-84007213D01*
X100252062Y-84007224D01*
X100100398Y-84204876D01*
X99975842Y-84420614D01*
X99975837Y-84420625D01*
X99975836Y-84420627D01*
X99926426Y-84539914D01*
X99880498Y-84650793D01*
X99880497Y-84650797D01*
X99816016Y-84891441D01*
X99783500Y-85138432D01*
X97646104Y-85138432D01*
X97755199Y-84792423D01*
X97758956Y-84782102D01*
X97770072Y-84755266D01*
X97904969Y-84429596D01*
X97909611Y-84419643D01*
X98085786Y-84081214D01*
X98091261Y-84071731D01*
X98296281Y-83749913D01*
X98302564Y-83740941D01*
X98398573Y-83615820D01*
X98534839Y-83438236D01*
X98541904Y-83429816D01*
X98799660Y-83148524D01*
X98807429Y-83140756D01*
X98902844Y-83053325D01*
X99088718Y-82883001D01*
X99097136Y-82875939D01*
X99275026Y-82739438D01*
X99399841Y-82643664D01*
X99408813Y-82637381D01*
X99730631Y-82432361D01*
X99740114Y-82426886D01*
X100078552Y-82250706D01*
X100088496Y-82246069D01*
X100441009Y-82100053D01*
X100451323Y-82096299D01*
X100815216Y-81981565D01*
X100825797Y-81978730D01*
X101198298Y-81896148D01*
X101209120Y-81894239D01*
X101587391Y-81844439D01*
X101598336Y-81843482D01*
X101982242Y-81826720D01*
X101987738Y-81826600D01*
X102058889Y-81826600D01*
X102059530Y-81826556D01*
X146348897Y-81800500D01*
X195974112Y-81800500D01*
X195988072Y-81801323D01*
X196007800Y-81801065D01*
X196050206Y-81800510D01*
X196051851Y-81800500D01*
X196114084Y-81800500D01*
X196128021Y-81799493D01*
X203696745Y-81700581D01*
X203704137Y-81700702D01*
G37*
%TD.AperFunction*%
%TD*%
M02*
