%TF.GenerationSoftware,KiCad,Pcbnew,10.0.5*%
%TF.CreationDate,2026-10-08T10:52:24-05:00*%
%TF.ProjectId,Rainworks_Electrical,5261696e-776f-4726-9b73-5f456c656374,rev?*%
%TF.SameCoordinates,Original*%
%TF.FileFunction,Soldermask,Bot*%
%TF.FilePolarity,Negative*%
%FSLAX46Y46*%
G04 Gerber Fmt 4.6, Leading zero omitted, Abs format (unit mm)*
G04 Created by KiCad (PCBNEW 10.0.5) date 2026-10-08 10:52:24*
%MOMM*%
%LPD*%
G01*
G04 APERTURE LIST*
G04 Aperture macros list*
%AMRoundRect*
0 Rectangle with rounded corners*
0 $1 Rounding radius*
0 $2 $3 $4 $5 $6 $7 $8 $9 X,Y pos of 4 corners*
0 Add a 4 corners polygon primitive as box body*
4,1,4,$2,$3,$4,$5,$6,$7,$8,$9,$2,$3,0*
0 Add four circle primitives for the rounded corners*
1,1,$1+$1,$2,$3*
1,1,$1+$1,$4,$5*
1,1,$1+$1,$6,$7*
1,1,$1+$1,$8,$9*
0 Add four rect primitives between the rounded corners*
20,1,$1+$1,$2,$3,$4,$5,0*
20,1,$1+$1,$4,$5,$6,$7,0*
20,1,$1+$1,$6,$7,$8,$9,0*
20,1,$1+$1,$8,$9,$2,$3,0*%
G04 Aperture macros list end*
%ADD10R,1.700000X1.700000*%
%ADD11O,1.981200X1.981200*%
%ADD12RoundRect,0.050800X-0.939800X0.939800X-0.939800X-0.939800X0.939800X-0.939800X0.939800X0.939800X0*%
%ADD13C,3.300000*%
%ADD14RoundRect,0.050800X-0.900000X-0.900000X0.900000X-0.900000X0.900000X0.900000X-0.900000X0.900000X0*%
%ADD15O,1.901600X1.901600*%
%ADD16RoundRect,0.225000X-0.225000X-0.250000X0.225000X-0.250000X0.225000X0.250000X-0.225000X0.250000X0*%
%ADD17RoundRect,0.250000X0.475000X-0.250000X0.475000X0.250000X-0.475000X0.250000X-0.475000X-0.250000X0*%
G04 APERTURE END LIST*
D10*
%TO.C,TP10*%
X203100000Y-111600000D03*
%TD*%
%TO.C,TP8*%
X203200000Y-107000000D03*
%TD*%
%TO.C,TP2*%
X190400000Y-117900000D03*
%TD*%
%TO.C,TP1*%
X190400000Y-113800000D03*
%TD*%
%TO.C,TP9*%
X203200000Y-99200000D03*
%TD*%
%TO.C,TP7*%
X203000000Y-95100000D03*
%TD*%
%TO.C,TP6*%
X203400000Y-103000000D03*
%TD*%
%TO.C,TP5*%
X203000000Y-90900000D03*
%TD*%
%TO.C,TP4*%
X195900000Y-117800000D03*
%TD*%
%TO.C,TP3*%
X195900000Y-113900000D03*
%TD*%
D11*
%TO.C,P1*%
X116797000Y-90597000D03*
X119337000Y-90597000D03*
X121877000Y-90597000D03*
X124417000Y-90597000D03*
X126957000Y-90597000D03*
X129497000Y-90597000D03*
X132037000Y-90597000D03*
X134577000Y-90597000D03*
X137117000Y-90597000D03*
X139657000Y-90597000D03*
D12*
X116797000Y-113457000D03*
D11*
X119337000Y-113457000D03*
X121877000Y-113457000D03*
X124417000Y-113457000D03*
X126957000Y-113457000D03*
X129497000Y-113457000D03*
X132037000Y-113457000D03*
X134577000Y-113457000D03*
X137117000Y-113457000D03*
X139657000Y-113457000D03*
%TD*%
D13*
%TO.C,Hole_gge5614*%
X202141000Y-85263000D03*
%TD*%
D14*
%TO.C,U11*%
X158460000Y-113838000D03*
D15*
X161000000Y-113838000D03*
X163540000Y-113838000D03*
%TD*%
D13*
%TO.C,Hole_gge5584*%
X101684000Y-118537000D03*
%TD*%
%TO.C,Hole_gge5599*%
X202649000Y-118664000D03*
%TD*%
%TO.C,Hole_gge5569*%
X101684000Y-85263000D03*
%TD*%
D14*
%TO.C,U7*%
X170960000Y-90997300D03*
D15*
X173500000Y-90997300D03*
X176040000Y-90997300D03*
%TD*%
D14*
%TO.C,U8*%
X179415000Y-113711000D03*
D15*
X181955000Y-113711000D03*
X184495000Y-113711000D03*
%TD*%
D14*
%TO.C,U10*%
X161460000Y-90978000D03*
D15*
X164000000Y-90978000D03*
X166540000Y-90978000D03*
%TD*%
D14*
%TO.C,U9*%
X169001000Y-113711000D03*
D15*
X171541000Y-113711000D03*
X174081000Y-113711000D03*
%TD*%
D16*
%TO.C,C2*%
X189975000Y-99500000D03*
X191525000Y-99500000D03*
%TD*%
D17*
%TO.C,C3*%
X191900000Y-94700000D03*
X191900000Y-92800000D03*
%TD*%
M02*
