%TF.GenerationSoftware,KiCad,Pcbnew,10.0.5*%
%TF.CreationDate,2026-10-08T10:52:24-05:00*%
%TF.ProjectId,Rainworks_Electrical,5261696e-776f-4726-9b73-5f456c656374,rev?*%
%TF.SameCoordinates,Original*%
%TF.FileFunction,Soldermask,Top*%
%TF.FilePolarity,Negative*%
%FSLAX46Y46*%
G04 Gerber Fmt 4.6, Leading zero omitted, Abs format (unit mm)*
G04 Created by KiCad (PCBNEW 10.0.5) date 2026-10-08 10:52:24*
%MOMM*%
%LPD*%
G01*
G04 APERTURE LIST*
G04 Aperture macros list*
%AMRoundRect*
0 Rectangle with rounded corners*
0 $1 Rounding radius*
0 $2 $3 $4 $5 $6 $7 $8 $9 X,Y pos of 4 corners*
0 Add a 4 corners polygon primitive as box body*
4,1,4,$2,$3,$4,$5,$6,$7,$8,$9,$2,$3,0*
0 Add four circle primitives for the rounded corners*
1,1,$1+$1,$2,$3*
1,1,$1+$1,$4,$5*
1,1,$1+$1,$6,$7*
1,1,$1+$1,$8,$9*
0 Add four rect primitives between the rounded corners*
20,1,$1+$1,$2,$3,$4,$5,0*
20,1,$1+$1,$4,$5,$6,$7,0*
20,1,$1+$1,$6,$7,$8,$9,0*
20,1,$1+$1,$8,$9,$2,$3,0*%
%AMFreePoly0*
4,1,13,0.442321,0.785221,0.457200,0.749300,0.457200,-0.749300,0.442321,-0.785221,0.406400,-0.800100,-0.406400,-0.800100,-0.442321,-0.785221,-0.457200,-0.749300,-0.457200,0.749300,-0.442321,0.785221,-0.406400,0.800100,0.406400,0.800100,0.442321,0.785221,0.442321,0.785221,$1*%
%AMFreePoly1*
4,1,13,0.759821,1.039221,0.774700,1.003300,0.774700,-1.003300,0.759821,-1.039221,0.723900,-1.054100,-0.723900,-1.054100,-0.759821,-1.039221,-0.774700,-1.003300,-0.774700,1.003300,-0.759821,1.039221,-0.723900,1.054100,0.723900,1.054100,0.759821,1.039221,0.759821,1.039221,$1*%
G04 Aperture macros list end*
%ADD10R,1.700000X1.700000*%
%ADD11O,1.981200X1.981200*%
%ADD12RoundRect,0.050800X-0.939800X0.939800X-0.939800X-0.939800X0.939800X-0.939800X0.939800X0.939800X0*%
%ADD13C,3.300000*%
%ADD14RoundRect,0.050800X-0.900000X-0.900000X0.900000X-0.900000X0.900000X0.900000X-0.900000X0.900000X0*%
%ADD15O,1.901600X1.901600*%
%ADD16RoundRect,0.237500X-0.250000X-0.237500X0.250000X-0.237500X0.250000X0.237500X-0.250000X0.237500X0*%
%ADD17RoundRect,0.225000X0.225000X0.250000X-0.225000X0.250000X-0.225000X-0.250000X0.225000X-0.250000X0*%
%ADD18RoundRect,0.237500X0.237500X-0.250000X0.237500X0.250000X-0.237500X0.250000X-0.237500X-0.250000X0*%
%ADD19RoundRect,0.237500X0.250000X0.237500X-0.250000X0.237500X-0.250000X-0.237500X0.250000X-0.237500X0*%
%ADD20RoundRect,0.150000X0.150000X-0.825000X0.150000X0.825000X-0.150000X0.825000X-0.150000X-0.825000X0*%
%ADD21FreePoly0,180.000000*%
%ADD22FreePoly1,180.000000*%
G04 APERTURE END LIST*
D10*
%TO.C,TP10*%
X203100000Y-111600000D03*
%TD*%
%TO.C,TP8*%
X203200000Y-107000000D03*
%TD*%
%TO.C,TP2*%
X190400000Y-117900000D03*
%TD*%
%TO.C,TP1*%
X190400000Y-113800000D03*
%TD*%
%TO.C,TP9*%
X203200000Y-99200000D03*
%TD*%
%TO.C,TP7*%
X203000000Y-95100000D03*
%TD*%
%TO.C,TP6*%
X203400000Y-103000000D03*
%TD*%
%TO.C,TP5*%
X203000000Y-90900000D03*
%TD*%
%TO.C,TP4*%
X195900000Y-117800000D03*
%TD*%
%TO.C,TP3*%
X195900000Y-113900000D03*
%TD*%
D11*
%TO.C,P1*%
X116797000Y-90597000D03*
X119337000Y-90597000D03*
X121877000Y-90597000D03*
X124417000Y-90597000D03*
X126957000Y-90597000D03*
X129497000Y-90597000D03*
X132037000Y-90597000D03*
X134577000Y-90597000D03*
X137117000Y-90597000D03*
X139657000Y-90597000D03*
D12*
X116797000Y-113457000D03*
D11*
X119337000Y-113457000D03*
X121877000Y-113457000D03*
X124417000Y-113457000D03*
X126957000Y-113457000D03*
X129497000Y-113457000D03*
X132037000Y-113457000D03*
X134577000Y-113457000D03*
X137117000Y-113457000D03*
X139657000Y-113457000D03*
%TD*%
D13*
%TO.C,Hole_gge5614*%
X202141000Y-85263000D03*
%TD*%
D14*
%TO.C,U11*%
X158460000Y-113838000D03*
D15*
X161000000Y-113838000D03*
X163540000Y-113838000D03*
%TD*%
D16*
%TO.C,R7*%
X179000000Y-110500000D03*
X180825000Y-110500000D03*
%TD*%
D17*
%TO.C,C1*%
X119275000Y-88000000D03*
X117725000Y-88000000D03*
%TD*%
D18*
%TO.C,R6*%
X167000000Y-87325000D03*
X167000000Y-85500000D03*
%TD*%
D13*
%TO.C,Hole_gge5584*%
X101684000Y-118537000D03*
%TD*%
%TO.C,Hole_gge5599*%
X202649000Y-118664000D03*
%TD*%
%TO.C,Hole_gge5569*%
X101684000Y-85263000D03*
%TD*%
D19*
%TO.C,R5*%
X171412500Y-87500000D03*
X169587500Y-87500000D03*
%TD*%
D14*
%TO.C,U7*%
X170960000Y-90997300D03*
D15*
X173500000Y-90997300D03*
X176040000Y-90997300D03*
%TD*%
D14*
%TO.C,U8*%
X179415000Y-113711000D03*
D15*
X181955000Y-113711000D03*
X184495000Y-113711000D03*
%TD*%
D14*
%TO.C,U10*%
X161460000Y-90978000D03*
D15*
X164000000Y-90978000D03*
X166540000Y-90978000D03*
%TD*%
D20*
%TO.C,U1*%
X163965000Y-105025000D03*
X165235000Y-105025000D03*
X166505000Y-105025000D03*
X167775000Y-105025000D03*
X169045000Y-105025000D03*
X170315000Y-105025000D03*
X171585000Y-105025000D03*
X172855000Y-105025000D03*
X172855000Y-100075000D03*
X171585000Y-100075000D03*
X170315000Y-100075000D03*
X169045000Y-100075000D03*
X167775000Y-100075000D03*
X166505000Y-100075000D03*
X165235000Y-100075000D03*
X163965000Y-100075000D03*
%TD*%
D16*
%TO.C,R8*%
X182500000Y-110500000D03*
X184325000Y-110500000D03*
%TD*%
D21*
%TO.C,J1*%
X186599900Y-97400000D03*
X187700000Y-97400000D03*
X188799800Y-97400000D03*
X189899900Y-97400000D03*
X191000000Y-97400000D03*
X192099800Y-97400000D03*
X193199900Y-97400000D03*
X194299900Y-97400000D03*
D22*
X182929900Y-94800100D03*
X182929900Y-103100000D03*
X196679900Y-103100000D03*
X196679900Y-94800100D03*
%TD*%
D14*
%TO.C,U9*%
X169001000Y-113711000D03*
D15*
X171541000Y-113711000D03*
X174081000Y-113711000D03*
%TD*%
M02*
