M48
; DRILL file KiCad 10.0.5 date 2026-10-08T11:18:28
; FORMAT={-:-/ absolute / metric / decimal}
; #@! TF.CreationDate,2026-10-08T11:18:28-05:00
; #@! TF.GenerationSoftware,Kicad,Pcbnew,10.0.5
; #@! TF.FileFunction,Plated,1,2,PTH
FMAT,2
METRIC
; #@! TA.AperFunction,Plated,PTH,ViaDrill
T1C0.300
; #@! TA.AperFunction,Plated,PTH,ComponentDrill
T2C1.000
; #@! TA.AperFunction,Plated,PTH,ComponentDrill
T3C1.016
; #@! TA.AperFunction,Plated,PTH,ComponentDrill
T4C1.200
%
G90
G05
T1
X148.295Y-97.558
X160.046Y-106.053
X162.539Y-100.182
X162.983Y-102.799
X164.995Y-92.186
X165.921Y-97.246
X170.9Y-97.2
X171.796Y-85.479
X171.798Y-102.801
X174.9Y-100.3
X186.545Y-111.817
X187.815Y-100.715
X189.423Y-94.31
X190.357Y-94.434
X192.951Y-99.127
X193.4Y-95.6
X200.625Y-94.2
T2
X190.4Y-113.8
X190.4Y-117.9
X195.9Y-113.9
X195.9Y-117.8
X203.0Y-90.9
X203.0Y-95.1
X203.1Y-111.6
X203.2Y-99.2
X203.2Y-107.0
X203.4Y-103.0
T3
X116.797Y-90.597
X116.797Y-113.457
X119.337Y-90.597
X119.337Y-113.457
X121.877Y-90.597
X121.877Y-113.457
X124.417Y-90.597
X124.417Y-113.457
X126.957Y-90.597
X126.957Y-113.457
X129.497Y-90.597
X129.497Y-113.457
X132.037Y-90.597
X132.037Y-113.457
X134.577Y-90.597
X134.577Y-113.457
X137.117Y-90.597
X137.117Y-113.457
X139.657Y-90.597
X139.657Y-113.457
T4
X158.46Y-113.838
X161.0Y-113.838
X161.46Y-90.978
X163.54Y-113.838
X164.0Y-90.978
X166.54Y-90.978
X169.001Y-113.711
X170.96Y-90.997
X171.541Y-113.711
X173.5Y-90.997
X174.081Y-113.711
X176.04Y-90.997
X179.415Y-113.711
X181.955Y-113.711
X184.495Y-113.711
M30
